<?xml version="1.0" encoding="UTF-8"?>
<svg xmlns="http://www.w3.org/2000/svg" xmlns:xlink="http://www.w3.org/1999/xlink" width="300px" height="300px" viewBox="0 0 300 300" version="1.1">
<g id="surface1">
<rect x="0" y="0" width="300" height="300" style="fill:rgb(100%,100%,100%);fill-opacity:1;stroke:none;"/>
<path style=" stroke:none;fill-rule:evenodd;fill:rgb(15.686275%,36.862746%,63.137257%);fill-opacity:1;" d="M 88.476562 194.085938 L 89.871094 190.460938 L 91.542969 194.085938 Z M 92.382812 196.042969 C 92.660156 196.601562 92.660156 196.878906 92.660156 197.160156 C 92.660156 197.160156 92.660156 197.4375 92.382812 197.4375 C 92.382812 197.4375 92.101562 197.71875 91.542969 197.71875 L 91.542969 198 L 95.449219 198 L 95.449219 197.71875 C 94.890625 197.71875 94.613281 197.4375 94.613281 197.160156 C 94.335938 197.160156 94.054688 196.605469 93.777344 196.042969 L 90.429688 188.230469 L 90.148438 188.230469 L 86.800781 196.042969 C 86.523438 196.601562 86.242188 197.160156 85.964844 197.4375 C 85.964844 197.4375 85.6875 197.4375 85.40625 197.71875 L 85.40625 198 L 88.195312 198 L 88.195312 197.71875 C 87.917969 197.71875 87.640625 197.4375 87.359375 197.4375 L 87.359375 196.320312 L 88.195312 194.648438 L 91.824219 194.648438 Z M 92.382812 196.042969 "/>
<path style=" stroke:none;fill-rule:evenodd;fill:rgb(15.686275%,36.862746%,63.137257%);fill-opacity:1;" d="M 94.894531 188.507812 L 97.40625 188.507812 L 103.265625 195.480469 L 103.265625 189.066406 C 102.988281 188.785156 102.707031 188.785156 102.425781 188.785156 L 101.871094 188.785156 L 101.871094 188.503906 L 105.21875 188.503906 L 105.21875 188.785156 L 104.9375 188.785156 C 104.660156 188.785156 104.382812 188.785156 104.101562 189.066406 C 104.101562 189.34375 103.824219 189.625 103.824219 190.179688 L 103.824219 197.996094 L 97.402344 190.460938 L 97.402344 196.320312 C 97.402344 196.875 97.402344 197.15625 97.683594 197.4375 C 97.683594 197.4375 97.960938 197.714844 98.519531 197.714844 L 98.796875 197.714844 L 98.796875 197.996094 L 95.453125 197.996094 L 95.453125 197.714844 L 95.730469 197.714844 C 96.289062 197.714844 96.566406 197.4375 96.566406 197.160156 C 96.847656 197.160156 96.847656 196.878906 96.847656 196.320312 L 96.847656 189.625 L 96.289062 189.066406 C 96.011719 189.066406 95.730469 188.785156 95.453125 188.785156 L 94.894531 188.785156 Z M 112.75 197.714844 L 112.75 197.996094 L 108.566406 197.996094 L 108.566406 197.714844 L 108.84375 197.714844 C 109.402344 197.714844 109.683594 197.4375 109.960938 197.160156 L 109.960938 189.066406 C 109.960938 189.066406 109.683594 189.066406 109.683594 188.785156 L 108.566406 188.785156 L 108.566406 188.507812 L 112.75 188.507812 L 112.75 188.785156 L 112.472656 188.785156 C 111.914062 188.785156 111.636719 188.785156 111.636719 189.066406 C 111.355469 189.066406 111.355469 189.625 111.355469 190.183594 L 111.355469 197.160156 C 111.636719 197.160156 111.636719 197.4375 111.636719 197.4375 C 111.914062 197.4375 112.195312 197.71875 112.472656 197.71875 L 112.75 197.71875 Z M 115.820312 194.085938 L 117.496094 190.460938 L 118.890625 194.085938 Z M 119.726562 196.042969 C 120.007812 196.601562 120.007812 196.878906 120.007812 197.160156 L 120.007812 197.4375 C 119.726562 197.4375 119.449219 197.71875 119.167969 197.71875 L 119.167969 198 L 122.796875 198 L 122.796875 197.71875 C 122.519531 197.71875 122.242188 197.4375 121.960938 197.160156 C 121.679688 197.160156 121.402344 196.605469 121.125 196.042969 L 118.054688 188.230469 L 117.773438 188.230469 L 114.425781 196.042969 C 114.148438 196.601562 113.867188 197.160156 113.589844 197.4375 C 113.308594 197.4375 113.308594 197.4375 112.75 197.71875 L 112.75 198 L 115.820312 198 L 115.820312 197.71875 C 115.261719 197.71875 114.984375 197.4375 114.984375 197.4375 L 114.703125 197.160156 C 114.703125 196.878906 114.703125 196.601562 114.984375 196.320312 L 115.539062 194.648438 L 119.167969 194.648438 Z M 130.890625 188.507812 L 130.890625 190.742188 L 130.609375 190.742188 L 130.609375 189.90625 L 130.054688 189.347656 C 129.773438 189.066406 129.496094 189.066406 128.9375 189.066406 L 127.542969 189.066406 L 127.542969 196.320312 C 127.542969 196.878906 127.820312 197.160156 127.820312 197.4375 C 128.101562 197.4375 128.378906 197.71875 128.660156 197.71875 L 128.9375 197.71875 L 128.9375 198 L 125.03125 198 L 125.03125 197.71875 L 125.3125 197.71875 C 125.589844 197.71875 125.871094 197.4375 126.148438 197.160156 C 126.148438 197.160156 126.425781 196.878906 126.425781 196.324219 L 126.425781 189.066406 L 124.195312 189.066406 C 123.917969 189.347656 123.636719 189.347656 123.636719 189.625 C 123.359375 189.90625 123.359375 190.183594 123.359375 190.742188 L 123.078125 190.742188 L 123.078125 188.507812 Z M 133.960938 194.085938 L 135.632812 190.460938 L 137.308594 194.085938 Z M 138.144531 196.042969 C 138.144531 196.601562 138.425781 196.878906 138.425781 197.160156 C 138.425781 197.160156 138.425781 197.4375 138.144531 197.4375 C 138.144531 197.4375 137.867188 197.71875 137.308594 197.71875 L 137.308594 198 L 141.214844 198 L 141.214844 197.71875 C 140.65625 197.71875 140.378906 197.4375 140.097656 197.160156 C 140.097656 197.160156 139.816406 196.605469 139.539062 196.042969 L 136.191406 188.230469 L 135.914062 188.230469 L 132.5625 196.042969 C 132.285156 196.601562 132.007812 197.160156 131.726562 197.4375 C 131.726562 197.4375 131.445312 197.4375 131.167969 197.71875 L 131.167969 198 L 133.960938 198 L 133.960938 197.71875 C 133.679688 197.71875 133.402344 197.4375 133.121094 197.4375 C 133.121094 197.160156 132.84375 197.160156 132.84375 197.160156 C 132.84375 196.878906 133.121094 196.601562 133.121094 196.320312 L 133.960938 194.648438 L 137.585938 194.648438 Z M 152.65625 188.230469 L 152.933594 191.574219 L 152.65625 191.574219 C 152.375 190.460938 152.097656 189.902344 151.539062 189.34375 C 150.980469 189.0625 150.421875 188.785156 149.585938 188.785156 C 149.027344 188.785156 148.46875 188.785156 147.910156 189.066406 C 147.355469 189.625 147.074219 189.902344 146.796875 190.738281 C 146.515625 191.296875 146.238281 192.414062 146.238281 193.25 C 146.238281 194.085938 146.238281 194.925781 146.515625 195.480469 C 146.796875 196.039062 147.355469 196.601562 147.910156 196.875 C 148.46875 197.433594 149.027344 197.433594 149.863281 197.433594 C 150.421875 197.433594 150.980469 197.433594 151.257812 197.15625 C 151.816406 196.875 152.375 196.320312 152.933594 195.480469 L 153.214844 195.761719 C 152.65625 196.597656 152.09375 197.15625 151.539062 197.433594 C 150.980469 197.992188 150.144531 197.992188 149.304688 197.992188 C 147.632812 197.992188 146.515625 197.433594 145.679688 196.320312 C 144.839844 195.480469 144.5625 194.363281 144.5625 193.25 C 144.5625 192.414062 144.84375 191.574219 145.398438 190.738281 C 145.679688 189.902344 146.238281 189.34375 147.074219 188.785156 C 147.632812 188.503906 148.46875 188.226562 149.304688 188.226562 C 150.144531 188.226562 150.699219 188.503906 151.539062 188.785156 L 152.097656 188.785156 C 152.375 188.503906 152.375 188.503906 152.375 188.226562 L 152.65625 188.226562 Z M 160.46875 189.625 C 161.027344 190.460938 161.308594 191.578125 161.308594 193.25 C 161.308594 194.644531 161.027344 195.761719 160.46875 196.601562 C 159.914062 197.15625 159.351562 197.714844 158.234375 197.714844 C 157.398438 197.714844 156.839844 197.160156 156.28125 196.601562 C 155.726562 195.761719 155.445312 194.644531 155.445312 192.972656 C 155.445312 191.578125 155.726562 190.460938 156.28125 189.625 C 156.839844 189.066406 157.398438 188.785156 158.234375 188.785156 C 159.351562 188.785156 159.910156 189.066406 160.46875 189.625 Z M 155.445312 189.34375 C 154.328125 190.460938 153.769531 191.578125 153.769531 193.25 C 153.769531 194.644531 154.328125 195.761719 155.164062 196.601562 C 156.003906 197.714844 157.121094 197.996094 158.515625 197.996094 C 159.628906 197.996094 160.746094 197.714844 161.585938 196.601562 C 162.703125 195.761719 162.980469 194.644531 162.980469 192.972656 C 162.980469 191.578125 162.703125 190.460938 161.585938 189.625 C 160.746094 188.785156 159.628906 188.230469 158.515625 188.230469 C 157.121094 188.230469 156.28125 188.507812 155.445312 189.34375 Z M 169.117188 197.996094 L 165.492188 189.90625 L 165.492188 197.4375 C 165.769531 197.4375 166.046875 197.71875 166.328125 197.71875 L 166.609375 197.71875 L 166.609375 198 L 163.257812 198 L 163.257812 197.71875 L 163.816406 197.71875 C 164.097656 197.71875 164.371094 197.4375 164.652344 197.160156 L 164.652344 189.066406 L 164.371094 188.789062 L 163.257812 188.789062 L 163.257812 188.507812 L 166.046875 188.507812 L 169.398438 195.765625 L 173.023438 188.507812 L 175.535156 188.507812 L 175.535156 188.789062 L 175.257812 188.789062 C 174.976562 188.789062 174.699219 188.789062 174.417969 189.066406 C 174.417969 189.347656 174.136719 189.625 174.136719 190.183594 L 174.136719 196.324219 C 174.136719 196.878906 174.417969 197.160156 174.417969 197.4375 C 174.699219 197.4375 174.976562 197.71875 175.257812 197.71875 L 175.535156 197.71875 L 175.535156 198 L 171.628906 198 L 171.628906 197.71875 L 171.90625 197.71875 C 172.1875 197.71875 172.464844 197.4375 172.742188 197.160156 L 172.742188 189.910156 Z M 178.328125 189.066406 L 179.441406 189.066406 C 179.722656 189.066406 180 189.066406 180.28125 189.347656 C 180.5625 189.347656 180.835938 189.625 181.117188 190.183594 C 181.117188 190.460938 181.394531 190.742188 181.394531 191.296875 C 181.394531 191.855469 181.117188 192.136719 180.839844 192.695312 C 180.457031 193.042969 179.960938 193.242188 179.445312 193.25 L 179.167969 193.25 C 178.886719 193.25 178.609375 192.972656 178.328125 192.972656 Z M 179.164062 193.53125 L 180 193.53125 C 180.835938 193.53125 181.675781 193.53125 182.234375 192.972656 C 182.789062 192.417969 182.789062 191.855469 182.789062 191.019531 C 182.789062 190.460938 182.789062 189.90625 182.511719 189.625 C 181.957031 189.066406 181.675781 188.789062 181.117188 188.789062 C 180.835938 188.507812 180 188.507812 179.164062 188.507812 L 175.816406 188.507812 L 175.816406 188.789062 L 176.09375 188.789062 C 176.375 188.789062 176.652344 188.789062 176.929688 189.066406 C 176.929688 189.066406 177.210938 189.625 177.210938 190.183594 L 177.210938 196.324219 C 177.210938 196.605469 176.929688 197.160156 176.929688 197.160156 C 176.652344 197.4375 176.375 197.71875 176.09375 197.71875 L 175.816406 197.71875 L 175.816406 198 L 179.722656 198 L 179.722656 197.71875 L 179.441406 197.71875 C 179.164062 197.71875 178.886719 197.4375 178.605469 197.4375 C 178.605469 197.160156 178.328125 196.878906 178.328125 196.320312 L 178.328125 193.53125 Z M 186.140625 194.085938 L 187.8125 190.460938 L 189.488281 194.085938 Z M 190.046875 196.042969 C 190.328125 196.601562 190.328125 196.878906 190.328125 197.160156 L 190.328125 197.4375 C 190.046875 197.4375 189.769531 197.71875 189.488281 197.71875 L 189.488281 198 L 193.117188 198 L 193.117188 197.71875 C 192.839844 197.71875 192.558594 197.4375 192.277344 197.160156 C 192 197.160156 192 196.605469 191.71875 196.042969 L 188.375 188.230469 L 188.09375 188.230469 L 184.746094 196.042969 C 184.46875 196.601562 184.1875 197.160156 183.910156 197.4375 C 183.910156 197.4375 183.628906 197.4375 183.074219 197.71875 L 183.074219 198 L 186.144531 198 L 186.144531 197.71875 C 185.585938 197.71875 185.304688 197.4375 185.304688 197.4375 L 185.023438 197.160156 C 185.023438 196.878906 185.023438 196.601562 185.304688 196.320312 L 185.863281 194.648438 L 189.488281 194.648438 Z M 192.839844 188.507812 L 195.347656 188.507812 L 201.210938 195.480469 L 201.210938 190.179688 C 201.210938 189.625 201.210938 189.066406 200.929688 189.066406 C 200.648438 188.785156 200.371094 188.785156 200.089844 188.785156 L 199.8125 188.785156 L 199.8125 188.503906 L 203.160156 188.503906 L 203.160156 188.785156 L 202.878906 188.785156 C 202.324219 188.785156 202.042969 188.785156 202.042969 189.066406 C 201.765625 189.34375 201.765625 189.625 201.765625 190.179688 L 201.765625 197.996094 L 201.484375 197.996094 L 195.347656 190.460938 L 195.347656 197.4375 C 195.625 197.4375 195.902344 197.714844 196.183594 197.714844 L 196.742188 197.714844 L 196.742188 197.996094 L 193.390625 197.996094 L 193.390625 197.714844 L 193.671875 197.714844 C 193.953125 197.714844 194.230469 197.4375 194.507812 197.160156 C 194.507812 197.160156 194.789062 196.878906 194.789062 196.320312 L 194.789062 189.625 C 194.507812 189.34375 194.230469 189.066406 193.953125 189.066406 C 193.953125 189.066406 193.671875 188.785156 193.394531 188.785156 L 192.839844 188.785156 Z M 209.859375 188.507812 L 212.929688 188.507812 L 212.929688 188.785156 L 212.371094 188.785156 C 212.09375 189.066406 211.816406 189.066406 211.816406 189.34375 L 210.976562 190.179688 L 208.742188 193.808594 L 208.742188 196.320312 C 208.742188 196.875 208.742188 197.15625 209.023438 197.4375 C 209.023438 197.4375 209.304688 197.714844 209.859375 197.714844 L 210.140625 197.714844 L 210.140625 197.996094 L 205.953125 197.996094 L 205.953125 197.714844 L 206.234375 197.714844 C 206.792969 197.714844 207.070312 197.4375 207.070312 197.160156 C 207.351562 197.160156 207.351562 196.878906 207.351562 196.320312 L 207.351562 194.085938 L 204.839844 189.902344 C 204.558594 189.625 204.28125 189.34375 204.28125 189.066406 C 204.003906 189.066406 203.726562 188.785156 203.445312 188.785156 L 203.164062 188.785156 L 203.164062 188.503906 L 207.074219 188.503906 L 207.074219 188.785156 L 206.234375 188.785156 C 206.234375 189.066406 205.957031 189.066406 205.957031 189.34375 C 205.957031 189.34375 206.234375 189.902344 206.515625 190.179688 L 208.46875 193.25 L 210.140625 190.460938 C 210.421875 189.902344 210.699219 189.625 210.699219 189.34375 L 210.699219 189.0625 L 210.417969 188.785156 L 209.859375 188.785156 Z M 50.246094 116.792969 L 50.804688 113.722656 L 17.039062 113.722656 L 18.15625 116.792969 C 22.621094 117.074219 25.691406 117.628906 25.691406 122.65625 L 25.96875 159.765625 C 25.96875 164.230469 22.339844 164.789062 17.320312 165.070312 L 17.320312 167.019531 L 50.246094 167.019531 L 50.246094 165.070312 C 44.945312 164.789062 41.316406 164.511719 41.316406 159.765625 L 41.316406 122.375 C 41.316406 117.074219 45.78125 116.792969 50.246094 116.792969 Z M 17.601562 178.742188 L 281.574219 178.742188 L 281.574219 176.226562 L 17.601562 176.226562 Z M 104.660156 113.726562 L 104.660156 130.46875 L 107.449219 130.46875 C 109.402344 117.910156 119.167969 117.632812 125.589844 117.351562 L 125.589844 158.09375 C 125.589844 164.230469 123.355469 164.789062 116.378906 165.070312 L 116.378906 167.019531 L 150.144531 167.019531 L 150.144531 165.070312 C 143.167969 164.789062 140.933594 164.511719 140.933594 158.09375 L 140.933594 117.351562 C 147.351562 117.632812 157.117188 117.910156 159.070312 130.46875 L 161.863281 130.46875 L 161.863281 113.726562 Z M 17.039062 104.515625 L 281.011719 104.515625 L 281.011719 102.007812 L 17.039062 102.007812 Z M 216.277344 165.070312 C 211.253906 165.070312 210.417969 162.835938 206.230469 154.464844 L 185.023438 113.726562 L 182.511719 113.726562 L 156.28125 167.023438 L 160.746094 167.023438 L 167.722656 151.957031 L 189.207031 151.957031 C 190.328125 154.191406 193.394531 160.046875 193.394531 162.28125 C 193.394531 164.792969 191.71875 164.792969 185.859375 165.070312 L 185.859375 167.023438 L 237.480469 167.023438 L 237.761719 165.070312 C 230.785156 164.511719 228.832031 163.117188 228.832031 157.535156 L 228.832031 126.5625 L 229.113281 126.5625 L 270.410156 167.023438 L 274.035156 167.023438 L 274.035156 122.65625 C 274.035156 119.027344 274.316406 115.957031 281.011719 115.398438 L 281.011719 113.445312 L 260.921875 113.445312 L 260.921875 115.398438 C 268.457031 115.679688 269.574219 119.863281 269.574219 122.375 L 269.574219 147.765625 L 269.292969 147.765625 L 236.085938 113.445312 L 216 113.445312 L 216.277344 115.398438 C 217.394531 115.398438 219.34375 117.070312 224.648438 122.371094 L 224.648438 158.925781 C 224.648438 163.117188 221.019531 165.070312 216.277344 165.070312 Z M 169.398438 148.882812 L 178.046875 130.1875 L 187.539062 148.882812 Z M 82.894531 113.726562 L 80.105469 113.726562 L 53.871094 167.023438 L 58.617188 167.023438 L 65.59375 151.953125 L 86.796875 151.953125 C 88.191406 154.1875 91.265625 160.042969 91.265625 162.28125 C 91.265625 164.789062 89.308594 164.789062 83.730469 165.070312 L 83.730469 167.023438 L 114.144531 167.023438 L 114.144531 165.070312 C 109.679688 165.347656 108.007812 162.835938 103.820312 154.464844 Z M 66.988281 148.882812 L 75.917969 130.1875 L 85.40625 148.882812 Z M 66.988281 148.882812 "/>
<path style=" stroke:none;fill-rule:nonzero;fill:rgb(15.686275%,36.862746%,63.137257%);fill-opacity:1;" d="M 285.757812 175.601562 C 286.902344 175.601562 287.925781 175.164062 288.660156 174.472656 C 289.421875 173.777344 289.859375 172.796875 289.871094 171.765625 C 289.871094 170.632812 289.441406 169.683594 288.734375 169.015625 C 287.992188 168.324219 286.945312 167.925781 285.757812 167.925781 C 284.699219 167.925781 283.710938 168.332031 283.007812 169.039062 L 283.003906 169.039062 C 282.339844 169.707031 281.917969 170.644531 281.917969 171.765625 C 281.917969 172.785156 282.367188 173.746094 283.074219 174.449219 C 283.78125 175.15625 284.738281 175.601562 285.757812 175.601562 Z M 289.136719 174.980469 C 288.21875 175.832031 287.011719 176.304688 285.757812 176.300781 C 284.546875 176.300781 283.410156 175.769531 282.582031 174.941406 C 281.753906 174.113281 281.226562 172.976562 281.226562 171.765625 C 281.226562 170.449219 281.722656 169.34375 282.515625 168.554688 L 282.515625 168.550781 C 283.378906 167.699219 284.546875 167.226562 285.757812 167.234375 C 287.121094 167.234375 288.339844 167.703125 289.207031 168.515625 C 290.058594 169.3125 290.570312 170.429688 290.570312 171.765625 C 290.570312 172.992188 290.027344 174.144531 289.136719 174.980469 Z M 289.136719 174.980469 "/>
<path style=" stroke:none;fill-rule:evenodd;fill:rgb(15.686275%,36.862746%,63.137257%);fill-opacity:1;" d="M 284.921875 169.53125 L 285.476562 169.53125 C 285.949219 169.53125 286.652344 169.792969 286.652344 170.371094 C 286.652344 171.230469 285.941406 171.488281 285.195312 171.488281 L 284.921875 171.488281 Z M 288.269531 173.71875 L 287.714844 173.71875 C 287.109375 173.058594 286.605469 172.355469 286.039062 171.640625 C 286.789062 171.640625 287.433594 171.257812 287.433594 170.371094 C 287.433594 169.359375 286.304688 169.109375 285.480469 169.109375 L 283.527344 169.109375 L 283.527344 169.253906 L 283.804688 169.253906 C 284.113281 169.253906 284.363281 169.816406 284.363281 170.089844 L 284.363281 173.160156 C 284.363281 173.589844 284.179688 173.71875 283.804688 173.71875 L 283.527344 173.71875 L 283.527344 173.996094 L 285.757812 173.996094 L 285.757812 173.71875 L 285.480469 173.71875 C 285.066406 173.742188 284.90625 173.472656 284.921875 173.160156 L 284.921875 171.765625 L 285.480469 171.765625 L 287.15625 174 L 288.269531 174 Z M 288.269531 173.71875 "/>
</g>
</svg>
