<svg width="245" height="69" viewBox="0 0 245 69" fill="none" xmlns="http://www.w3.org/2000/svg">
<path d="M1 2.57715V68.7109" stroke="black" stroke-width="2"/>
<path d="M14 2.57715V68.7109" stroke="black" stroke-width="2"/>
<path d="M7.5 2.57715H1V68.7109H7.5V2.57715Z" fill="black"/>
<path d="M14 2.57715H7.5V68.7109H14V2.57715Z" fill="black"/>
<path d="M29 68.7109L29 2.57715L41.5 35.644L29 68.7109Z" fill="black"/>
<path d="M29 68.7109L29 2.57715L41.5 35.644L29 68.7109Z" stroke="black" stroke-width="2"/>
<path d="M54 68.7109L54 2.57715L41.5 35.644L54 68.7109Z" stroke="black" stroke-width="2"/>
<path d="M68 2.57715H74" stroke="black" stroke-width="2"/>
<path d="M71 2.57715V68.7109" stroke="black" stroke-width="2"/>
<path d="M68 68.7109H74" stroke="black" stroke-width="2"/>
<path d="M88 68.7109L88 2.57715L100.5 35.644L88 68.7109Z" fill="black"/>
<path d="M88 68.7109L88 2.57715L100.5 35.644L88 68.7109Z" stroke="black" stroke-width="2"/>
<path d="M113 68.7109L113 2.57715L100.5 35.644L113 68.7109Z" stroke="black" stroke-width="2"/>
<path d="M128 68.7109L128 2.57715L140.5 35.644L128 68.7109Z" fill="black"/>
<path d="M128 68.7109L128 2.57715L140.5 35.644L128 68.7109Z" stroke="black" stroke-width="2"/>
<path d="M153 68.7109L153 2.57715L140.5 35.644L153 68.7109Z" stroke="black" stroke-width="2"/>
<path d="M244.5 34.5C244.5 52.4838 229.932 67 211.5 67C193.068 67 178.5 52.4838 178.5 34.5C178.5 16.5162 193.068 2 211.5 2C229.932 2 244.5 16.5162 244.5 34.5Z" stroke="black" stroke-width="2"/>
<path d="M211.5 69C192.011 69 176.5 53.4888 176.5 34.5C176.5 15.5112 192.011 0 211.5 0C230.989 0 246.5 15.5112 246.5 34.5C246.5 53.4888 230.989 69 211.5 69Z" fill="#D9D9D9"/>
<path d="M211.5 69C192.011 69 176.5 53.4888 176.5 34.5C176.5 15.5112 192.011 0 211.5 0C230.989 0 246.5 15.5112 246.5 34.5C246.5 53.4888 230.989 69 211.5 69Z" stroke="black" stroke-width="2"/>
<path d="M192.5 34.5L230.5 34.5" stroke="black" stroke-width="2"/>
<path d="M211.5 15.5V53.5" stroke="black" stroke-width="2"/>
<path d="M211.5 34.5C200.729 34.5 192 26.3152 192 16C192 5.68478 200.729 -2.5 211.5 -2.5C222.271 -2.5 231 5.68478 231 16C231 26.3152 222.271 34.5 211.5 34.5Z" stroke="black" stroke-width="2"/>
</svg>
