<?xml version="1.0" encoding="UTF-8"?>
<svg xmlns="http://www.w3.org/2000/svg" xmlns:xlink="http://www.w3.org/1999/xlink" width="1526px" height="1526px" viewBox="0 0 1526 1526" version="1.1">
<g id="surface1">
<rect x="0" y="0" width="1526" height="1526" style="fill:rgb(100%,100%,100%);fill-opacity:1;stroke:none;"/>
<path style=" stroke:none;fill-rule:evenodd;fill:rgb(15.686275%,36.862746%,63.137257%);fill-opacity:1;" d="M 450.042969 987.257812 L 457.136719 968.8125 L 465.65625 987.257812 Z M 469.914062 997.199219 C 471.332031 1000.042969 471.332031 1001.453125 471.332031 1002.878906 C 471.332031 1002.878906 471.332031 1004.300781 469.914062 1004.300781 C 469.914062 1004.300781 468.488281 1005.726562 465.65625 1005.726562 L 465.65625 1007.152344 L 485.527344 1007.152344 L 485.527344 1005.726562 C 482.683594 1005.726562 481.265625 1004.300781 481.265625 1002.886719 C 479.851562 1002.886719 478.433594 1000.058594 477.007812 997.210938 L 459.980469 957.46875 L 458.5625 957.46875 L 441.53125 997.210938 C 440.117188 1000.050781 438.691406 1002.886719 437.273438 1004.300781 C 437.273438 1004.300781 435.855469 1004.300781 434.4375 1005.726562 L 434.4375 1007.152344 L 448.625 1007.152344 L 448.625 1005.726562 C 447.210938 1005.726562 445.792969 1004.300781 444.367188 1004.300781 L 444.367188 998.625 L 448.625 990.109375 L 467.078125 990.109375 Z M 469.914062 997.199219 "/>
<path style=" stroke:none;fill-rule:evenodd;fill:rgb(15.686275%,36.862746%,63.137257%);fill-opacity:1;" d="M 482.691406 958.867188 L 495.46875 958.867188 L 525.277344 994.351562 L 525.277344 961.710938 C 523.859375 960.285156 522.433594 960.285156 521.015625 960.285156 L 518.175781 960.285156 L 518.175781 958.859375 L 535.203125 958.859375 L 535.203125 960.285156 L 533.785156 960.285156 C 532.371094 960.285156 530.953125 960.285156 529.527344 961.710938 C 529.527344 963.136719 528.109375 964.550781 528.109375 967.386719 L 528.109375 1007.136719 L 495.460938 968.804688 L 495.460938 998.617188 C 495.460938 1001.445312 495.460938 1002.871094 496.878906 1004.292969 C 496.878906 1004.292969 498.296875 1005.71875 501.136719 1005.71875 L 502.554688 1005.71875 L 502.554688 1007.144531 L 485.535156 1007.144531 L 485.535156 1005.71875 L 486.949219 1005.71875 C 489.785156 1005.71875 491.210938 1004.292969 491.210938 1002.878906 C 492.636719 1002.878906 492.636719 1001.453125 492.636719 998.625 L 492.636719 964.558594 L 489.792969 961.71875 C 488.375 961.71875 486.957031 960.292969 485.535156 960.292969 L 482.691406 960.292969 Z M 573.527344 1005.71875 L 573.527344 1007.144531 L 552.242188 1007.144531 L 552.242188 1005.71875 L 553.65625 1005.71875 C 556.5 1005.71875 557.917969 1004.292969 559.332031 1002.878906 L 559.332031 961.71875 C 559.332031 961.71875 557.917969 961.71875 557.917969 960.292969 L 552.242188 960.292969 L 552.242188 958.867188 L 573.527344 958.867188 L 573.527344 960.292969 L 572.113281 960.292969 C 569.269531 960.292969 567.851562 960.292969 567.851562 961.71875 C 566.433594 961.71875 566.433594 964.558594 566.433594 967.394531 L 566.433594 1002.878906 C 567.851562 1002.878906 567.851562 1004.300781 567.851562 1004.300781 C 569.269531 1004.300781 570.695312 1005.726562 572.113281 1005.726562 L 573.527344 1005.726562 Z M 589.140625 987.257812 L 597.660156 968.8125 L 604.753906 987.257812 Z M 609.011719 997.199219 C 610.4375 1000.042969 610.4375 1001.453125 610.4375 1002.878906 L 610.4375 1004.300781 C 609.011719 1004.300781 607.601562 1005.726562 606.175781 1005.726562 L 606.175781 1007.152344 L 624.632812 1007.152344 L 624.632812 1005.726562 C 623.207031 1005.726562 621.796875 1004.300781 620.371094 1002.886719 C 618.953125 1002.886719 617.539062 1000.058594 616.113281 997.210938 L 600.5 957.46875 L 599.074219 957.46875 L 582.046875 997.210938 C 580.628906 1000.050781 579.210938 1002.886719 577.789062 1004.300781 C 576.371094 1004.300781 576.371094 1004.300781 573.527344 1005.726562 L 573.527344 1007.152344 L 589.140625 1007.152344 L 589.140625 1005.726562 C 586.304688 1005.726562 584.882812 1004.300781 584.882812 1004.300781 L 583.457031 1002.878906 C 583.457031 1001.453125 583.457031 1000.050781 584.882812 998.625 L 587.714844 990.109375 L 606.167969 990.109375 Z M 665.789062 958.867188 L 665.789062 970.238281 L 664.375 970.238281 L 664.375 965.984375 L 661.539062 963.144531 C 660.121094 961.71875 658.695312 961.71875 655.863281 961.71875 L 648.769531 961.71875 L 648.769531 998.625 C 648.769531 1001.453125 650.1875 1002.878906 650.1875 1004.300781 C 651.601562 1004.300781 653.027344 1005.726562 654.445312 1005.726562 L 655.871094 1005.726562 L 655.871094 1007.152344 L 636 1007.152344 L 636 1005.726562 L 637.417969 1005.726562 C 638.839844 1005.726562 640.257812 1004.300781 641.675781 1002.886719 C 641.675781 1002.886719 643.09375 1001.460938 643.09375 998.632812 L 643.09375 961.726562 L 631.742188 961.726562 C 630.324219 963.152344 628.898438 963.152344 628.898438 964.566406 C 627.480469 965.992188 627.480469 967.394531 627.480469 970.246094 L 626.0625 970.246094 L 626.0625 958.875 L 665.789062 958.875 Z M 681.410156 987.257812 L 689.921875 968.8125 L 698.4375 987.257812 Z M 702.699219 997.199219 C 702.699219 1000.042969 704.117188 1001.453125 704.117188 1002.878906 C 704.117188 1002.878906 704.117188 1004.300781 702.699219 1004.300781 C 702.699219 1004.300781 701.28125 1005.726562 698.4375 1005.726562 L 698.4375 1007.152344 L 718.308594 1007.152344 L 718.308594 1005.726562 C 715.476562 1005.726562 714.050781 1004.300781 712.632812 1002.886719 C 712.632812 1002.886719 711.207031 1000.058594 709.792969 997.210938 L 692.761719 957.46875 L 691.34375 957.46875 L 674.308594 997.210938 C 672.890625 1000.050781 671.472656 1002.886719 670.050781 1004.300781 C 670.050781 1004.300781 668.625 1004.300781 667.214844 1005.726562 L 667.214844 1007.152344 L 681.410156 1007.152344 L 681.410156 1005.726562 C 679.984375 1005.726562 678.566406 1004.300781 677.152344 1004.300781 C 677.152344 1002.878906 675.734375 1002.878906 675.734375 1002.878906 C 675.734375 1001.453125 677.152344 1000.050781 677.152344 998.625 L 681.410156 990.109375 L 699.863281 990.109375 Z M 776.507812 957.460938 L 777.929688 974.480469 L 776.507812 974.480469 C 775.082031 968.804688 773.664062 965.976562 770.828125 963.128906 C 767.988281 961.703125 765.144531 960.285156 760.894531 960.285156 C 758.050781 960.285156 755.21875 960.285156 752.375 961.710938 C 749.542969 964.550781 748.117188 965.976562 746.699219 970.230469 C 745.28125 973.054688 743.855469 978.746094 743.855469 983 C 743.855469 987.25 743.855469 991.515625 745.28125 994.351562 C 746.699219 997.191406 749.542969 1000.042969 752.375 1001.445312 C 755.21875 1004.285156 758.050781 1004.285156 762.3125 1004.285156 C 765.144531 1004.285156 767.988281 1004.285156 769.40625 1002.863281 C 772.246094 1001.4375 775.082031 998.609375 777.921875 994.34375 L 779.347656 995.769531 C 776.507812 1000.035156 773.65625 1002.863281 770.828125 1004.285156 C 767.988281 1007.128906 763.726562 1007.128906 759.46875 1007.128906 C 750.957031 1007.128906 745.28125 1004.285156 741.015625 998.609375 C 736.757812 994.34375 735.339844 988.667969 735.339844 982.992188 C 735.339844 978.738281 736.765625 974.472656 739.597656 970.222656 C 741.015625 965.96875 743.855469 963.128906 748.117188 960.277344 C 750.957031 958.851562 755.210938 957.449219 759.46875 957.449219 C 763.726562 957.449219 766.5625 958.859375 770.828125 960.277344 L 773.664062 960.277344 C 775.089844 958.851562 775.089844 958.851562 775.089844 957.449219 L 776.507812 957.449219 Z M 816.246094 964.558594 C 819.089844 968.8125 820.515625 974.488281 820.515625 983.007812 C 820.515625 990.101562 819.089844 995.777344 816.246094 1000.042969 C 813.421875 1002.871094 810.570312 1005.71875 804.894531 1005.71875 C 800.628906 1005.71875 797.800781 1002.878906 794.953125 1000.042969 C 792.125 995.777344 790.699219 990.101562 790.699219 981.582031 C 790.699219 974.488281 792.125 968.8125 794.953125 964.558594 C 797.792969 961.71875 800.628906 960.292969 804.894531 960.292969 C 810.570312 960.292969 813.414062 961.71875 816.246094 964.558594 Z M 790.699219 963.136719 C 785.023438 968.8125 782.183594 974.488281 782.183594 983.007812 C 782.183594 990.101562 785.023438 995.777344 789.277344 1000.042969 C 793.542969 1005.71875 799.21875 1007.136719 806.3125 1007.136719 C 811.988281 1007.136719 817.664062 1005.710938 821.933594 1000.042969 C 827.609375 995.777344 829.019531 990.101562 829.019531 981.582031 C 829.019531 974.488281 827.609375 968.8125 821.933594 964.558594 C 817.664062 960.292969 811.988281 957.46875 806.3125 957.46875 C 799.21875 957.460938 794.953125 958.867188 790.699219 963.136719 Z M 860.25 1007.144531 L 841.804688 965.984375 L 841.804688 1004.300781 C 843.210938 1004.300781 844.628906 1005.726562 846.054688 1005.726562 L 847.480469 1005.726562 L 847.480469 1007.152344 L 830.441406 1007.152344 L 830.441406 1005.726562 L 833.285156 1005.726562 C 834.710938 1005.726562 836.109375 1004.300781 837.535156 1002.886719 L 837.535156 961.726562 L 836.109375 960.300781 L 830.433594 960.300781 L 830.433594 958.875 L 844.628906 958.875 L 861.667969 995.785156 L 880.113281 958.875 L 892.882812 958.875 L 892.882812 960.300781 L 891.472656 960.300781 C 890.046875 960.300781 888.628906 960.300781 887.207031 961.726562 C 887.207031 963.152344 885.78125 964.566406 885.78125 967.402344 L 885.78125 998.632812 C 885.78125 1001.460938 887.207031 1002.886719 887.207031 1004.308594 C 888.628906 1004.308594 890.046875 1005.734375 891.472656 1005.734375 L 892.882812 1005.734375 L 892.882812 1007.160156 L 873.011719 1007.160156 L 873.011719 1005.734375 L 874.4375 1005.734375 C 875.859375 1005.734375 877.277344 1004.308594 878.6875 1002.894531 L 878.6875 966 Z M 907.085938 961.71875 L 912.761719 961.71875 C 914.1875 961.71875 915.601562 961.71875 917.027344 963.144531 C 918.453125 963.144531 919.855469 964.566406 921.28125 967.394531 C 921.28125 968.820312 922.703125 970.238281 922.703125 973.070312 C 922.703125 975.914062 921.28125 977.339844 919.863281 980.179688 C 917.917969 981.949219 915.398438 982.957031 912.769531 983.007812 L 911.359375 983.007812 C 909.933594 983.007812 908.519531 981.582031 907.09375 981.582031 L 907.09375 961.71875 Z M 911.351562 984.429688 L 915.601562 984.429688 C 919.855469 984.429688 924.121094 984.429688 926.957031 981.589844 C 929.796875 978.761719 929.796875 975.914062 929.796875 971.660156 C 929.796875 968.820312 929.796875 965.984375 928.371094 964.566406 C 925.546875 961.726562 924.121094 960.300781 921.28125 960.300781 C 919.855469 958.875 915.601562 958.875 911.351562 958.875 L 894.316406 958.875 L 894.316406 960.300781 L 895.738281 960.300781 C 897.164062 960.300781 898.566406 960.300781 899.992188 961.726562 C 899.992188 961.726562 901.417969 964.566406 901.417969 967.402344 L 901.417969 998.632812 C 901.417969 1000.058594 899.992188 1002.886719 899.992188 1002.886719 C 898.566406 1004.308594 897.164062 1005.726562 895.738281 1005.726562 L 894.316406 1005.726562 L 894.316406 1007.152344 L 914.1875 1007.152344 L 914.1875 1005.726562 L 912.761719 1005.726562 C 911.351562 1005.726562 909.933594 1004.300781 908.511719 1004.300781 C 908.511719 1002.878906 907.085938 1001.460938 907.085938 998.625 L 907.085938 984.429688 Z M 946.84375 987.257812 L 955.34375 968.8125 L 963.863281 987.257812 Z M 966.707031 997.199219 C 968.128906 1000.042969 968.128906 1001.453125 968.128906 1002.878906 L 968.128906 1004.300781 C 966.707031 1004.300781 965.289062 1005.726562 963.863281 1005.726562 L 963.863281 1007.152344 L 982.324219 1007.152344 L 982.324219 1005.726562 C 980.902344 1005.726562 979.484375 1004.300781 978.058594 1002.886719 C 976.632812 1002.886719 976.632812 1000.058594 975.214844 997.210938 L 958.195312 957.46875 L 956.769531 957.46875 L 939.75 997.210938 C 938.324219 1000.050781 936.90625 1002.886719 935.480469 1004.300781 C 935.480469 1004.300781 934.058594 1004.300781 931.230469 1005.726562 L 931.230469 1007.152344 L 946.851562 1007.152344 L 946.851562 1005.726562 C 944.007812 1005.726562 942.582031 1004.300781 942.582031 1004.300781 L 941.160156 1002.878906 C 941.160156 1001.453125 941.160156 1000.050781 942.582031 998.625 L 945.425781 990.109375 L 963.871094 990.109375 Z M 980.902344 958.867188 L 993.671875 958.867188 L 1023.484375 994.351562 L 1023.484375 967.386719 C 1023.484375 964.558594 1023.484375 961.710938 1022.058594 961.710938 C 1020.632812 960.285156 1019.21875 960.285156 1017.792969 960.285156 L 1016.382812 960.285156 L 1016.382812 958.859375 L 1033.40625 958.859375 L 1033.40625 960.285156 L 1031.980469 960.285156 C 1029.152344 960.285156 1027.726562 960.285156 1027.726562 961.710938 C 1026.304688 963.136719 1026.304688 964.550781 1026.304688 967.386719 L 1026.304688 1007.136719 L 1024.878906 1007.136719 L 993.664062 968.804688 L 993.664062 1004.292969 C 995.085938 1004.292969 996.488281 1005.71875 997.914062 1005.71875 L 1000.753906 1005.71875 L 1000.753906 1007.144531 L 983.71875 1007.144531 L 983.71875 1005.71875 L 985.144531 1005.71875 C 986.570312 1005.71875 987.984375 1004.292969 989.394531 1002.878906 C 989.394531 1002.878906 990.820312 1001.453125 990.820312 998.625 L 990.820312 964.558594 C 989.394531 963.136719 987.992188 961.71875 986.570312 961.71875 C 986.570312 961.71875 985.144531 960.292969 983.726562 960.292969 L 980.902344 960.292969 Z M 1067.476562 958.867188 L 1083.097656 958.867188 L 1083.097656 960.292969 L 1080.253906 960.292969 C 1078.847656 961.71875 1077.429688 961.71875 1077.429688 963.136719 L 1073.164062 967.386719 L 1061.808594 985.847656 L 1061.808594 998.617188 C 1061.808594 1001.445312 1061.808594 1002.871094 1063.234375 1004.292969 C 1063.234375 1004.292969 1064.660156 1005.71875 1067.484375 1005.71875 L 1068.910156 1005.71875 L 1068.910156 1007.144531 L 1047.621094 1007.144531 L 1047.621094 1005.71875 L 1049.046875 1005.71875 C 1051.890625 1005.71875 1053.300781 1004.292969 1053.300781 1002.878906 C 1054.722656 1002.878906 1054.722656 1001.453125 1054.722656 998.625 L 1054.722656 987.257812 L 1041.953125 965.976562 C 1040.53125 964.550781 1039.113281 963.136719 1039.113281 961.710938 C 1037.703125 961.710938 1036.285156 960.285156 1034.859375 960.285156 L 1033.4375 960.285156 L 1033.4375 958.859375 L 1053.308594 958.859375 L 1053.308594 960.285156 L 1049.054688 960.285156 C 1049.054688 961.710938 1047.628906 961.710938 1047.628906 963.128906 C 1047.628906 963.128906 1049.054688 965.96875 1050.472656 967.378906 L 1060.402344 983 L 1068.917969 968.804688 C 1070.34375 965.976562 1071.761719 964.550781 1071.761719 963.128906 L 1071.761719 961.703125 L 1070.335938 960.277344 L 1067.492188 960.277344 L 1067.492188 958.867188 Z M 255.59375 594.089844 L 258.425781 578.476562 L 86.679688 578.476562 L 92.355469 594.089844 C 115.070312 595.511719 130.683594 598.347656 130.683594 623.902344 L 132.097656 812.667969 C 132.097656 835.382812 113.644531 838.234375 88.097656 839.648438 L 88.097656 849.578125 L 255.59375 849.578125 L 255.59375 839.648438 C 228.621094 838.226562 210.171875 836.808594 210.171875 812.667969 L 210.171875 622.476562 C 210.164062 595.511719 232.878906 594.089844 255.59375 594.089844 Z M 89.523438 909.207031 L 1432.265625 909.207031 L 1432.265625 896.414062 L 89.523438 896.414062 Z M 532.371094 578.484375 L 532.371094 663.644531 L 546.5625 663.644531 C 556.5 599.773438 606.175781 598.355469 638.824219 596.929688 L 638.824219 804.167969 C 638.824219 835.382812 627.464844 838.234375 591.984375 839.648438 L 591.984375 849.578125 L 763.726562 849.578125 L 763.726562 839.648438 C 728.246094 838.226562 716.886719 836.808594 716.886719 804.167969 L 716.886719 596.929688 C 749.535156 598.355469 799.210938 599.773438 809.140625 663.644531 L 823.339844 663.644531 L 823.339844 578.484375 Z M 86.679688 531.640625 L 1429.421875 531.640625 L 1429.421875 518.871094 L 86.679688 518.871094 Z M 1100.132812 839.65625 C 1074.570312 839.65625 1070.320312 828.289062 1049.03125 785.714844 L 941.152344 578.492188 L 928.378906 578.492188 L 794.953125 849.59375 L 817.664062 849.59375 L 853.148438 772.945312 L 962.4375 772.945312 C 968.128906 784.3125 983.726562 814.101562 983.726562 825.472656 C 983.726562 838.242188 975.207031 838.242188 945.410156 839.664062 L 945.410156 849.59375 L 1207.992188 849.59375 L 1209.417969 839.664062 C 1173.933594 836.824219 1163.992188 829.722656 1163.992188 801.332031 L 1163.992188 643.773438 L 1165.417969 643.773438 L 1375.488281 849.585938 L 1393.933594 849.585938 L 1393.933594 623.902344 C 1393.933594 605.449219 1395.359375 589.835938 1429.414062 586.996094 L 1429.414062 577.058594 L 1327.226562 577.058594 L 1327.226562 586.996094 C 1365.542969 588.421875 1371.234375 609.707031 1371.234375 622.476562 L 1371.234375 751.640625 L 1369.8125 751.640625 L 1200.898438 577.050781 L 1098.710938 577.050781 L 1100.132812 586.988281 C 1105.8125 586.988281 1115.738281 595.503906 1142.71875 622.46875 L 1142.71875 808.410156 C 1142.71875 829.714844 1124.257812 839.65625 1100.132812 839.65625 Z M 861.675781 757.324219 L 905.667969 662.226562 L 953.945312 757.324219 Z M 421.652344 578.484375 L 407.460938 578.484375 L 274.03125 849.585938 L 298.160156 849.585938 L 333.644531 772.933594 L 441.515625 772.933594 C 448.609375 784.304688 464.230469 814.09375 464.230469 825.464844 C 464.230469 838.234375 454.292969 838.234375 425.90625 839.65625 L 425.90625 849.585938 L 580.613281 849.585938 L 580.613281 839.65625 C 557.902344 841.066406 549.390625 828.289062 528.09375 785.714844 Z M 340.753906 757.324219 L 386.171875 662.226562 L 434.429688 757.324219 Z M 340.753906 757.324219 "/>
<path style=" stroke:none;fill-rule:nonzero;fill:rgb(15.686275%,36.862746%,63.137257%);fill-opacity:1;" d="M 1453.554688 893.230469 C 1459.378906 893.230469 1464.582031 891.003906 1468.320312 887.492188 C 1472.191406 883.949219 1474.425781 878.964844 1474.484375 873.714844 C 1474.484375 867.945312 1472.292969 863.125 1468.691406 859.734375 C 1464.914062 856.210938 1459.585938 854.183594 1453.554688 854.183594 C 1448.171875 854.183594 1443.152344 856.257812 1439.558594 859.84375 L 1439.542969 859.84375 C 1436.167969 863.234375 1434.023438 868.007812 1434.023438 873.714844 C 1434.023438 878.894531 1436.3125 883.792969 1439.898438 887.371094 C 1443.492188 890.957031 1448.359375 893.230469 1453.554688 893.230469 Z M 1470.75 890.0625 C 1466.078125 894.40625 1459.929688 896.804688 1453.554688 896.777344 C 1447.402344 896.777344 1441.617188 894.085938 1437.394531 889.867188 C 1433.191406 885.660156 1430.5 879.875 1430.5 873.722656 C 1430.5 867.027344 1433.035156 861.398438 1437.054688 857.382812 L 1437.070312 857.367188 C 1441.460938 853.039062 1447.390625 850.632812 1453.554688 850.671875 C 1460.480469 850.671875 1466.679688 853.054688 1471.105469 857.175781 C 1475.421875 861.230469 1478.03125 866.914062 1478.03125 873.722656 C 1478.03125 879.960938 1475.269531 885.8125 1470.75 890.0625 Z M 1470.75 890.0625 "/>
<path style=" stroke:none;fill-rule:evenodd;fill:rgb(15.686275%,36.862746%,63.137257%);fill-opacity:1;" d="M 1449.300781 862.355469 L 1452.128906 862.355469 C 1454.527344 862.355469 1458.113281 863.683594 1458.113281 866.621094 C 1458.113281 871 1454.480469 872.296875 1450.703125 872.296875 L 1449.292969 872.296875 L 1449.292969 862.355469 Z M 1466.332031 883.644531 L 1463.503906 883.644531 C 1460.425781 880.300781 1457.875 876.714844 1454.988281 873.082031 C 1458.800781 873.082031 1462.082031 871.136719 1462.082031 866.621094 C 1462.082031 861.476562 1456.339844 860.203125 1452.136719 860.203125 L 1442.210938 860.203125 L 1442.210938 860.945312 L 1443.617188 860.945312 C 1445.195312 860.945312 1446.460938 863.804688 1446.460938 865.199219 L 1446.460938 880.816406 C 1446.460938 882.992188 1445.535156 883.644531 1443.617188 883.644531 L 1442.210938 883.644531 L 1442.210938 885.066406 L 1453.5625 885.066406 L 1453.5625 883.644531 L 1452.136719 883.644531 C 1450.046875 883.769531 1449.230469 882.390625 1449.308594 880.816406 L 1449.308594 873.722656 L 1452.144531 873.722656 L 1460.664062 885.078125 L 1466.339844 885.078125 L 1466.339844 883.644531 Z M 1466.332031 883.644531 "/>
</g>
</svg>
