<svg width="251" height="60" viewBox="0 0 251 60" fill="none" xmlns="http://www.w3.org/2000/svg">
<path d="M22.8631 59.336H11.5361L0 0H12.607L17.2023 23.3642H17.414L23.933 0H34.4697L40.9887 23.3642H41.2004L45.7957 0H58.4027L46.8661 59.336H35.5391L29.2318 31.8105H29.0201L22.8631 59.336ZM81.2513 59.336H69.9243L59.334 0H71.1527L76.8189 39.8183H77.0306L87.1245 0H97.7148L81.2513 59.336ZM130.686 59.336H100.068V0H130.686V11.2387H111.327V23.4385H128.008V34.6029H111.327V48.1716H130.686V59.336ZM173.093 59.336H161.766L151.176 0H162.994L167.301 39.8183H167.513L177.607 0H188.197L173.093 59.336ZM216.593 59.336H205.266L194.676 0H206.494L210.801 39.8183H211.013L221.107 0H231.697L216.593 59.336ZM235.088 11.2387V59.336H223.761V11.2387C223.761 4.70059 229.289 0.0742188 235.088 0.0742188C240.887 0.0742188 246.415 4.70059 246.415 11.2387V59.336H235.088Z" fill="#002855"/>
</svg>
