<svg width="250" height="60" viewBox="0 0 250 60" fill="none" xmlns="http://www.w3.org/2000/svg">
<path d="M22.7824 58.664H11.5174L0 0H12.569L17.1513 23.0842H17.3623L23.8643 0H34.3723L40.8743 23.0842H41.0853L45.6676 0H58.2366L46.7356 58.664H35.4706L29.1821 31.4395H28.9711L22.7824 58.664ZM81.0287 58.664H69.7637L59.2207 0H71.0007L76.6579 39.3583H76.8689L86.9189 0H97.4729L81.0287 58.664ZM130.34 58.664H100V0H130.34V11.1087H111.22V23.1685H127.653V34.2029H111.22V47.6156H130.34V58.664ZM172.586 58.664H161.321L150.778 0H162.558L166.852 39.3583H167.063L177.113 0H187.667L172.586 58.664ZM215.986 58.664H204.721L194.178 0H205.958L210.252 39.3583H210.463L220.513 0H231.067L215.986 58.664ZM234.379 11.1087V58.664H223.114V11.1087C223.114 4.64659 228.618 0.0742188 234.379 0.0742188C240.14 0.0742188 245.644 4.64659 245.644 11.1087V58.664H234.379Z" fill="#002855"/>
</svg>
