<?xml version="1.0" encoding="UTF-8"?>
<svg xmlns="http://www.w3.org/2000/svg" xmlns:xlink="http://www.w3.org/1999/xlink" width="2500px" height="1526px" viewBox="0 0 2500 1526" version="1.1">
<g id="surface1">
<rect x="0" y="0" width="2500" height="1526" style="fill:rgb(100%,100%,100%);fill-opacity:1;stroke:none;"/>
<path style=" stroke:none;fill-rule:evenodd;fill:rgb(15.686275%,36.862746%,63.137257%);fill-opacity:1;" d="M 737.292969 987.257812 L 748.914062 968.8125 L 762.867188 987.257812 Z M 769.847656 997.199219 C 772.167969 1000.042969 772.167969 1001.453125 772.167969 1002.878906 C 772.167969 1002.878906 772.167969 1004.300781 769.847656 1004.300781 C 769.847656 1004.300781 767.511719 1005.726562 762.867188 1005.726562 L 762.867188 1007.152344 L 795.421875 1007.152344 L 795.421875 1005.726562 C 790.765625 1005.726562 788.445312 1004.300781 788.445312 1002.886719 C 786.125 1002.886719 783.800781 1000.058594 781.46875 997.210938 L 753.570312 957.46875 L 751.246094 957.46875 L 723.351562 997.210938 C 721.027344 1000.050781 718.695312 1002.886719 716.371094 1004.300781 C 716.371094 1004.300781 714.050781 1004.300781 711.730469 1005.726562 L 711.730469 1007.152344 L 734.96875 1007.152344 L 734.96875 1005.726562 C 732.648438 1005.726562 730.328125 1004.300781 727.992188 1004.300781 L 727.992188 998.625 L 734.96875 990.109375 L 765.203125 990.109375 Z M 769.847656 997.199219 "/>
<path style=" stroke:none;fill-rule:evenodd;fill:rgb(15.686275%,36.862746%,63.137257%);fill-opacity:1;" d="M 790.78125 958.867188 L 811.710938 958.867188 L 860.542969 994.351562 L 860.542969 961.710938 C 858.222656 960.285156 855.886719 960.285156 853.566406 960.285156 L 848.910156 960.285156 L 848.910156 958.859375 L 876.808594 958.859375 L 876.808594 960.285156 L 874.488281 960.285156 C 872.164062 960.285156 869.84375 960.285156 867.507812 961.710938 C 867.507812 963.136719 865.1875 964.550781 865.1875 967.386719 L 865.1875 1007.136719 L 811.699219 968.804688 L 811.699219 998.617188 C 811.699219 1001.445312 811.699219 1002.871094 814.019531 1004.292969 C 814.019531 1004.292969 816.34375 1005.71875 821 1005.71875 L 823.320312 1005.71875 L 823.320312 1007.144531 L 795.4375 1007.144531 L 795.4375 1005.71875 L 797.757812 1005.71875 C 802.402344 1005.71875 804.734375 1004.292969 804.734375 1002.878906 C 807.070312 1002.878906 807.070312 1001.453125 807.070312 998.625 L 807.070312 964.558594 L 802.414062 961.71875 C 800.09375 961.71875 797.769531 960.292969 795.4375 960.292969 L 790.78125 960.292969 Z M 939.59375 1005.71875 L 939.59375 1007.144531 L 904.71875 1007.144531 L 904.71875 1005.71875 L 907.039062 1005.71875 C 911.695312 1005.71875 914.019531 1004.292969 916.339844 1002.878906 L 916.339844 961.71875 C 916.339844 961.71875 914.019531 961.71875 914.019531 960.292969 L 904.71875 960.292969 L 904.71875 958.867188 L 939.59375 958.867188 L 939.59375 960.292969 L 937.273438 960.292969 C 932.617188 960.292969 930.296875 960.292969 930.296875 961.71875 C 927.972656 961.71875 927.972656 964.558594 927.972656 967.394531 L 927.972656 1002.878906 C 930.296875 1002.878906 930.296875 1004.300781 930.296875 1004.300781 C 932.617188 1004.300781 934.953125 1005.726562 937.273438 1005.726562 L 939.59375 1005.726562 Z M 965.171875 987.257812 L 979.125 968.8125 L 990.746094 987.257812 Z M 997.726562 997.199219 C 1000.058594 1000.042969 1000.058594 1001.453125 1000.058594 1002.878906 L 1000.058594 1004.300781 C 997.726562 1004.300781 995.417969 1005.726562 993.082031 1005.726562 L 993.082031 1007.152344 L 1023.316406 1007.152344 L 1023.316406 1005.726562 C 1020.980469 1005.726562 1018.671875 1004.300781 1016.335938 1002.886719 C 1014.015625 1002.886719 1011.695312 1000.058594 1009.359375 997.210938 L 983.78125 957.46875 L 981.449219 957.46875 L 953.550781 997.210938 C 951.226562 1000.050781 948.90625 1002.886719 946.574219 1004.300781 C 944.25 1004.300781 944.25 1004.300781 939.59375 1005.726562 L 939.59375 1007.152344 L 965.171875 1007.152344 L 965.171875 1005.726562 C 960.527344 1005.726562 958.191406 1004.300781 958.191406 1004.300781 L 955.859375 1002.878906 C 955.859375 1001.453125 955.859375 1000.050781 958.191406 998.625 L 962.835938 990.109375 L 993.070312 990.109375 Z M 1090.746094 958.867188 L 1090.746094 970.238281 L 1088.421875 970.238281 L 1088.421875 965.984375 L 1083.78125 963.144531 C 1081.457031 961.71875 1079.125 961.71875 1074.480469 961.71875 L 1062.859375 961.71875 L 1062.859375 998.625 C 1062.859375 1001.453125 1065.179688 1002.878906 1065.179688 1004.300781 C 1067.503906 1004.300781 1069.835938 1005.726562 1072.160156 1005.726562 L 1074.492188 1005.726562 L 1074.492188 1007.152344 L 1041.9375 1007.152344 L 1041.9375 1005.726562 L 1044.261719 1005.726562 C 1046.59375 1005.726562 1048.917969 1004.300781 1051.238281 1002.886719 C 1051.238281 1002.886719 1053.558594 1001.460938 1053.558594 998.632812 L 1053.558594 961.726562 L 1034.960938 961.726562 C 1032.640625 963.152344 1030.304688 963.152344 1030.304688 964.566406 C 1027.984375 965.992188 1027.984375 967.394531 1027.984375 970.246094 L 1025.660156 970.246094 L 1025.660156 958.875 L 1090.746094 958.875 Z M 1116.332031 987.257812 L 1130.277344 968.8125 L 1144.230469 987.257812 Z M 1151.210938 997.199219 C 1151.210938 1000.042969 1153.53125 1001.453125 1153.53125 1002.878906 C 1153.53125 1002.878906 1153.53125 1004.300781 1151.210938 1004.300781 C 1151.210938 1004.300781 1148.886719 1005.726562 1144.230469 1005.726562 L 1144.230469 1007.152344 L 1176.785156 1007.152344 L 1176.785156 1005.726562 C 1172.140625 1005.726562 1169.808594 1004.300781 1167.488281 1002.886719 C 1167.488281 1002.886719 1165.152344 1000.058594 1162.832031 997.210938 L 1134.933594 957.46875 L 1132.609375 957.46875 L 1104.699219 997.210938 C 1102.378906 1000.050781 1100.054688 1002.886719 1097.722656 1004.300781 C 1097.722656 1004.300781 1095.386719 1004.300781 1093.078125 1005.726562 L 1093.078125 1007.152344 L 1116.332031 1007.152344 L 1116.332031 1005.726562 C 1114 1005.726562 1111.675781 1004.300781 1109.355469 1004.300781 C 1109.355469 1002.878906 1107.035156 1002.878906 1107.035156 1002.878906 C 1107.035156 1001.453125 1109.355469 1000.050781 1109.355469 998.625 L 1116.332031 990.109375 L 1146.566406 990.109375 Z M 1272.125 957.460938 L 1274.460938 974.480469 L 1272.125 974.480469 C 1269.792969 968.804688 1267.46875 965.976562 1262.828125 963.128906 C 1258.171875 961.703125 1253.515625 960.285156 1246.550781 960.285156 C 1241.894531 960.285156 1237.25 960.285156 1232.59375 961.710938 C 1227.953125 964.550781 1225.617188 965.976562 1223.296875 970.230469 C 1220.972656 973.054688 1218.640625 978.746094 1218.640625 983 C 1218.640625 987.25 1218.640625 991.515625 1220.972656 994.351562 C 1223.296875 997.191406 1227.953125 1000.042969 1232.59375 1001.445312 C 1237.25 1004.285156 1241.894531 1004.285156 1248.871094 1004.285156 C 1253.515625 1004.285156 1258.171875 1004.285156 1260.492188 1002.863281 C 1265.148438 1001.4375 1269.792969 998.609375 1274.449219 994.34375 L 1276.78125 995.769531 C 1272.125 1000.035156 1267.457031 1002.863281 1262.828125 1004.285156 C 1258.171875 1007.128906 1251.191406 1007.128906 1244.214844 1007.128906 C 1230.273438 1007.128906 1220.972656 1004.285156 1213.984375 998.609375 C 1207.003906 994.34375 1204.683594 988.667969 1204.683594 982.992188 C 1204.683594 978.738281 1207.019531 974.472656 1211.660156 970.222656 C 1213.984375 965.96875 1218.640625 963.128906 1225.617188 960.277344 C 1230.273438 958.851562 1237.238281 957.449219 1244.214844 957.449219 C 1251.191406 957.449219 1255.835938 958.859375 1262.828125 960.277344 L 1267.46875 960.277344 C 1269.804688 958.851562 1269.804688 958.851562 1269.804688 957.449219 L 1272.125 957.449219 Z M 1337.234375 964.558594 C 1341.890625 968.8125 1344.226562 974.488281 1344.226562 983.007812 C 1344.226562 990.101562 1341.890625 995.777344 1337.234375 1000.042969 C 1332.605469 1002.871094 1327.933594 1005.71875 1318.636719 1005.71875 C 1311.644531 1005.71875 1307.015625 1002.878906 1302.347656 1000.042969 C 1297.714844 995.777344 1295.382812 990.101562 1295.382812 981.582031 C 1295.382812 974.488281 1297.714844 968.8125 1302.347656 964.558594 C 1307.003906 961.71875 1311.644531 960.292969 1318.636719 960.292969 C 1327.933594 960.292969 1332.589844 961.71875 1337.234375 964.558594 Z M 1295.382812 963.136719 C 1286.082031 968.8125 1281.425781 974.488281 1281.425781 983.007812 C 1281.425781 990.101562 1286.082031 995.777344 1293.046875 1000.042969 C 1300.039062 1005.71875 1309.335938 1007.136719 1320.957031 1007.136719 C 1330.257812 1007.136719 1339.554688 1005.710938 1346.546875 1000.042969 C 1355.847656 995.777344 1358.15625 990.101562 1358.15625 981.582031 C 1358.15625 974.488281 1355.847656 968.8125 1346.546875 964.558594 C 1339.554688 960.292969 1330.257812 957.46875 1320.957031 957.46875 C 1309.335938 957.460938 1302.347656 958.867188 1295.382812 963.136719 Z M 1409.320312 1007.144531 L 1379.101562 965.984375 L 1379.101562 1004.300781 C 1381.410156 1004.300781 1383.730469 1005.726562 1386.066406 1005.726562 L 1388.398438 1005.726562 L 1388.398438 1007.152344 L 1360.488281 1007.152344 L 1360.488281 1005.726562 L 1365.144531 1005.726562 C 1367.480469 1005.726562 1369.777344 1004.300781 1372.109375 1002.886719 L 1372.109375 961.726562 L 1369.777344 960.300781 L 1360.476562 960.300781 L 1360.476562 958.875 L 1383.730469 958.875 L 1411.640625 995.785156 L 1441.863281 958.875 L 1462.78125 958.875 L 1462.78125 960.300781 L 1460.472656 960.300781 C 1458.140625 960.300781 1455.816406 960.300781 1453.484375 961.726562 C 1453.484375 963.152344 1451.148438 964.566406 1451.148438 967.402344 L 1451.148438 998.632812 C 1451.148438 1001.460938 1453.484375 1002.886719 1453.484375 1004.308594 C 1455.816406 1004.308594 1458.140625 1005.734375 1460.472656 1005.734375 L 1462.78125 1005.734375 L 1462.78125 1007.160156 L 1430.226562 1007.160156 L 1430.226562 1005.734375 L 1432.5625 1005.734375 C 1434.898438 1005.734375 1437.21875 1004.308594 1439.527344 1002.894531 L 1439.527344 966 Z M 1486.050781 961.71875 L 1495.347656 961.71875 C 1497.683594 961.71875 1500.003906 961.71875 1502.339844 963.144531 C 1504.675781 963.144531 1506.96875 964.566406 1509.304688 967.394531 C 1509.304688 968.820312 1511.640625 970.238281 1511.640625 973.070312 C 1511.640625 975.914062 1509.304688 977.339844 1506.984375 980.179688 C 1503.796875 981.949219 1499.667969 982.957031 1495.363281 983.007812 L 1493.054688 983.007812 C 1490.71875 983.007812 1488.398438 981.582031 1486.0625 981.582031 L 1486.0625 961.71875 Z M 1493.039062 984.429688 L 1500.003906 984.429688 C 1506.96875 984.429688 1513.960938 984.429688 1518.605469 981.589844 C 1523.261719 978.761719 1523.261719 975.914062 1523.261719 971.660156 C 1523.261719 968.820312 1523.261719 965.984375 1520.925781 964.566406 C 1516.296875 961.726562 1513.960938 960.300781 1509.304688 960.300781 C 1506.96875 958.875 1500.003906 958.875 1493.039062 958.875 L 1465.128906 958.875 L 1465.128906 960.300781 L 1467.464844 960.300781 C 1469.796875 960.300781 1472.09375 960.300781 1474.429688 961.726562 C 1474.429688 961.726562 1476.761719 964.566406 1476.761719 967.402344 L 1476.761719 998.632812 C 1476.761719 1000.058594 1474.429688 1002.886719 1474.429688 1002.886719 C 1472.09375 1004.308594 1469.796875 1005.726562 1467.464844 1005.726562 L 1465.128906 1005.726562 L 1465.128906 1007.152344 L 1497.683594 1007.152344 L 1497.683594 1005.726562 L 1495.347656 1005.726562 C 1493.039062 1005.726562 1490.71875 1004.300781 1488.382812 1004.300781 C 1488.382812 1002.878906 1486.050781 1001.460938 1486.050781 998.625 L 1486.050781 984.429688 Z M 1551.183594 987.257812 L 1565.113281 968.8125 L 1579.070312 987.257812 Z M 1583.726562 997.199219 C 1586.058594 1000.042969 1586.058594 1001.453125 1586.058594 1002.878906 L 1586.058594 1004.300781 C 1583.726562 1004.300781 1581.402344 1005.726562 1579.070312 1005.726562 L 1579.070312 1007.152344 L 1609.3125 1007.152344 L 1609.3125 1005.726562 C 1606.980469 1005.726562 1604.660156 1004.300781 1602.324219 1002.886719 C 1599.988281 1002.886719 1599.988281 1000.058594 1597.667969 997.210938 L 1569.78125 957.46875 L 1567.449219 957.46875 L 1539.5625 997.210938 C 1537.226562 1000.050781 1534.90625 1002.886719 1532.574219 1004.300781 C 1532.574219 1004.300781 1530.238281 1004.300781 1525.609375 1005.726562 L 1525.609375 1007.152344 L 1551.195312 1007.152344 L 1551.195312 1005.726562 C 1546.539062 1005.726562 1544.207031 1004.300781 1544.207031 1004.300781 L 1541.871094 1002.878906 C 1541.871094 1001.453125 1541.871094 1000.050781 1544.207031 998.625 L 1548.863281 990.109375 L 1579.082031 990.109375 Z M 1606.980469 958.867188 L 1627.898438 958.867188 L 1676.746094 994.351562 L 1676.746094 967.386719 C 1676.746094 964.558594 1676.746094 961.710938 1674.410156 961.710938 C 1672.074219 960.285156 1669.753906 960.285156 1667.417969 960.285156 L 1665.109375 960.285156 L 1665.109375 958.859375 L 1692.996094 958.859375 L 1692.996094 960.285156 L 1690.660156 960.285156 C 1686.03125 960.285156 1683.695312 960.285156 1683.695312 961.710938 C 1681.363281 963.136719 1681.363281 964.550781 1681.363281 967.386719 L 1681.363281 1007.136719 L 1679.027344 1007.136719 L 1627.886719 968.804688 L 1627.886719 1004.292969 C 1630.222656 1004.292969 1632.515625 1005.71875 1634.851562 1005.71875 L 1639.507812 1005.71875 L 1639.507812 1007.144531 L 1611.597656 1007.144531 L 1611.597656 1005.71875 L 1613.929688 1005.71875 C 1616.265625 1005.71875 1618.585938 1004.292969 1620.894531 1002.878906 C 1620.894531 1002.878906 1623.230469 1001.453125 1623.230469 998.625 L 1623.230469 964.558594 C 1620.894531 963.136719 1618.601562 961.71875 1616.265625 961.71875 C 1616.265625 961.71875 1613.929688 960.292969 1611.609375 960.292969 L 1606.980469 960.292969 Z M 1748.816406 958.867188 L 1774.40625 958.867188 L 1774.40625 960.292969 L 1769.75 960.292969 C 1767.441406 961.71875 1765.121094 961.71875 1765.121094 963.136719 L 1758.128906 967.386719 L 1739.53125 985.847656 L 1739.53125 998.617188 C 1739.53125 1001.445312 1739.53125 1002.871094 1741.867188 1004.292969 C 1741.867188 1004.292969 1744.199219 1005.71875 1748.832031 1005.71875 L 1751.164062 1005.71875 L 1751.164062 1007.144531 L 1716.289062 1007.144531 L 1716.289062 1005.71875 L 1718.625 1005.71875 C 1723.28125 1005.71875 1725.589844 1004.292969 1725.589844 1002.878906 C 1727.921875 1002.878906 1727.921875 1001.453125 1727.921875 998.625 L 1727.921875 987.257812 L 1707.003906 965.976562 C 1704.667969 964.550781 1702.347656 963.136719 1702.347656 961.710938 C 1700.039062 961.710938 1697.714844 960.285156 1695.382812 960.285156 L 1693.046875 960.285156 L 1693.046875 958.859375 L 1725.601562 958.859375 L 1725.601562 960.285156 L 1718.636719 960.285156 C 1718.636719 961.710938 1716.300781 961.710938 1716.300781 963.128906 C 1716.300781 963.128906 1718.636719 965.96875 1720.957031 967.378906 L 1737.222656 983 L 1751.175781 968.804688 C 1753.511719 965.976562 1755.832031 964.550781 1755.832031 963.128906 L 1755.832031 961.703125 L 1753.5 960.277344 L 1748.84375 960.277344 L 1748.84375 958.867188 Z M 418.730469 594.089844 L 423.371094 578.476562 L 142.007812 578.476562 L 151.304688 594.089844 C 188.515625 595.511719 214.09375 598.347656 214.09375 623.902344 L 216.414062 812.667969 C 216.414062 835.382812 186.179688 838.234375 144.328125 839.648438 L 144.328125 849.578125 L 418.730469 849.578125 L 418.730469 839.648438 C 374.539062 838.226562 344.320312 836.808594 344.320312 812.667969 L 344.320312 622.476562 C 344.308594 595.511719 381.519531 594.089844 418.730469 594.089844 Z M 146.660156 909.207031 L 2346.4375 909.207031 L 2346.4375 896.414062 L 146.660156 896.414062 Z M 872.164062 578.484375 L 872.164062 663.644531 L 895.417969 663.644531 C 911.695312 599.773438 993.082031 598.355469 1046.570312 596.929688 L 1046.570312 804.167969 C 1046.570312 835.382812 1027.957031 838.234375 969.828125 839.648438 L 969.828125 849.578125 L 1251.191406 849.578125 L 1251.191406 839.648438 C 1193.0625 838.226562 1174.449219 836.808594 1174.449219 804.167969 L 1174.449219 596.929688 C 1227.9375 598.355469 1309.324219 599.773438 1325.585938 663.644531 L 1348.855469 663.644531 L 1348.855469 578.484375 Z M 142.007812 531.640625 L 2341.78125 531.640625 L 2341.78125 518.871094 L 142.007812 518.871094 Z M 1802.316406 839.65625 C 1760.4375 839.65625 1753.472656 828.289062 1718.597656 785.714844 L 1541.859375 578.492188 L 1520.9375 578.492188 L 1302.347656 849.59375 L 1339.554688 849.59375 L 1397.6875 772.945312 L 1576.734375 772.945312 C 1586.058594 784.3125 1611.609375 814.101562 1611.609375 825.472656 C 1611.609375 838.242188 1597.65625 838.242188 1548.835938 839.664062 L 1548.835938 849.59375 L 1979.015625 849.59375 L 1981.351562 839.664062 C 1923.222656 836.824219 1906.929688 829.722656 1906.929688 801.332031 L 1906.929688 643.773438 L 1909.265625 643.773438 L 2253.417969 849.585938 L 2283.636719 849.585938 L 2283.636719 623.902344 C 2283.636719 605.449219 2285.972656 589.835938 2341.769531 586.996094 L 2341.769531 577.058594 L 2174.355469 577.058594 L 2174.355469 586.996094 C 2237.128906 588.421875 2246.453125 609.707031 2246.453125 622.476562 L 2246.453125 751.640625 L 2244.121094 751.640625 L 1967.398438 577.050781 L 1799.984375 577.050781 L 1802.316406 586.988281 C 1811.617188 586.988281 1827.882812 595.503906 1872.082031 622.46875 L 1872.082031 808.410156 C 1872.082031 829.714844 1841.835938 839.65625 1802.316406 839.65625 Z M 1411.65625 757.324219 L 1483.726562 662.226562 L 1562.816406 757.324219 Z M 690.78125 578.484375 L 667.527344 578.484375 L 448.933594 849.585938 L 488.46875 849.585938 L 546.597656 772.933594 L 723.324219 772.933594 C 734.945312 784.304688 760.535156 814.09375 760.535156 825.464844 C 760.535156 838.234375 744.257812 838.234375 697.746094 839.65625 L 697.746094 849.585938 L 951.203125 849.585938 L 951.203125 839.65625 C 913.992188 841.066406 900.050781 828.289062 865.160156 785.714844 Z M 558.246094 757.324219 L 632.652344 662.226562 L 711.714844 757.324219 Z M 558.246094 757.324219 "/>
<path style=" stroke:none;fill-rule:nonzero;fill:rgb(15.686275%,36.862746%,63.137257%);fill-opacity:1;" d="M 2381.3125 893.230469 C 2390.859375 893.230469 2399.378906 891.003906 2405.503906 887.492188 C 2411.847656 883.949219 2415.507812 878.964844 2415.605469 873.714844 C 2415.605469 867.945312 2412.011719 863.125 2406.113281 859.734375 C 2399.925781 856.210938 2391.195312 854.183594 2381.3125 854.183594 C 2372.496094 854.183594 2364.269531 856.257812 2358.382812 859.84375 L 2358.355469 859.84375 C 2352.832031 863.234375 2349.316406 868.007812 2349.316406 873.714844 C 2349.316406 878.894531 2353.066406 883.792969 2358.941406 887.371094 C 2364.828125 890.957031 2372.804688 893.230469 2381.3125 893.230469 Z M 2409.484375 890.0625 C 2401.832031 894.40625 2391.761719 896.804688 2381.3125 896.777344 C 2371.234375 896.777344 2361.753906 894.085938 2354.84375 889.867188 C 2347.957031 885.660156 2343.546875 879.875 2343.546875 873.722656 C 2343.546875 867.027344 2347.695312 861.398438 2354.285156 857.382812 L 2354.3125 857.367188 C 2361.503906 853.039062 2371.214844 850.632812 2381.3125 850.671875 C 2392.664062 850.671875 2402.816406 853.054688 2410.066406 857.175781 C 2417.136719 861.230469 2421.417969 866.914062 2421.417969 873.722656 C 2421.417969 879.960938 2416.890625 885.8125 2409.484375 890.0625 Z M 2409.484375 890.0625 "/>
<path style=" stroke:none;fill-rule:evenodd;fill:rgb(15.686275%,36.862746%,63.137257%);fill-opacity:1;" d="M 2374.347656 862.355469 L 2378.980469 862.355469 C 2382.910156 862.355469 2388.785156 863.683594 2388.785156 866.621094 C 2388.785156 871 2382.832031 872.296875 2376.644531 872.296875 L 2374.335938 872.296875 L 2374.335938 862.355469 Z M 2402.246094 883.644531 L 2397.617188 883.644531 C 2392.570312 880.300781 2388.394531 876.714844 2383.660156 873.082031 C 2389.914062 873.082031 2395.28125 871.136719 2395.28125 866.621094 C 2395.28125 861.476562 2385.878906 860.203125 2378.992188 860.203125 L 2362.726562 860.203125 L 2362.726562 860.945312 L 2365.035156 860.945312 C 2367.617188 860.945312 2369.691406 863.804688 2369.691406 865.199219 L 2369.691406 880.816406 C 2369.691406 882.992188 2368.175781 883.644531 2365.035156 883.644531 L 2362.726562 883.644531 L 2362.726562 885.066406 L 2381.328125 885.066406 L 2381.328125 883.644531 L 2378.992188 883.644531 C 2375.566406 883.769531 2374.230469 882.390625 2374.363281 880.816406 L 2374.363281 873.722656 L 2379.003906 873.722656 L 2392.960938 885.078125 L 2402.261719 885.078125 L 2402.261719 883.644531 Z M 2402.246094 883.644531 "/>
</g>
</svg>
