<svg xmlns="http://www.w3.org/2000/svg" viewBox="0 0 250 60" fill="currentColor">
  <path d="M0 5V0h5v5zm10 0V0h5v5zM5.5 25l-5-20h5l5 20zM20 5V0h5v5zm10 0V0h5v5zM25.5 25l-5-20h5l5 20zM50.2 5h-5.4L35 25h5.5l2-5h10.4l2 5h5.6zm-1.8 15h-8.8l4.4-10zM60 25V0h15.5c7 0 12.5 5.5 12.5 12.5S82.5 25 75.5 25zm5-5h10.5c4.1 0 7.5-3.4 7.5-7.5S80.1 5 76 5H65zM95 25V0h5v25zM110.2 5h-5.4L95 25h5.5l2-5h10.4l2 5h5.6zm-1.8 15h-8.8l4.4-10zM130 5V0h5v5zm10 0V0h5v5zM135.5 25l-5-20h5l5 20zM155.6 25c-5.8 0-10.6-4.8-10.6-10.6V0h5v14.4c0 3.1 2.5 5.6 5.6 5.6s5.6-2.5 5.6-5.6V0h5v14.4c0 5.8-4.8 10.6-10.6 10.6zM180 25V0h5v25zM200.2 5h-5.4L185 25h5.5l2-5h10.4l2 5h5.6zm-1.8 15h-8.8l4.4-10zM220 25V0h5v25zM245.5 25h-16V0h16v5h-11v5h11v5h-11v5h11z"/>
</svg>
