<?xml version="1.0" encoding="UTF-8"?>
<svg version="1.1" xmlns="http://www.w3.org/2000/svg" width="512" height="512">
<path d="M0 0 C0.82132919 -0.00701431 1.64265839 -0.01402863 2.48887634 -0.02125549 C5.12154698 -0.03864922 7.75399278 -0.04510674 10.38671875 -0.046875 C11.73521912 -0.04788712 11.73521912 -0.04788712 13.11096191 -0.04891968 C26.00506707 -0.03351815 38.45848084 0.30960713 51.07421875 3.203125 C51.87553223 3.37473145 52.6768457 3.54633789 53.50244141 3.72314453 C91.20002443 11.86826818 123.38079969 30.0646039 151.63671875 56.015625 C152.18432861 56.51827881 152.73193848 57.02093262 153.29614258 57.53881836 C186.75432607 88.93756383 209.95858319 137.48635968 212.1806488 183.40235901 C212.23700054 185.64496936 212.26445416 187.88562951 212.27734375 190.12890625 C212.28435806 190.95023544 212.29137238 191.77156464 212.29859924 192.61778259 C212.31599297 195.25045323 212.32245049 197.88289903 212.32421875 200.515625 C212.32489349 201.41462524 212.32556824 202.31362549 212.32626343 203.23986816 C212.3108619 216.13397332 211.96773662 228.58738709 209.07421875 241.203125 C208.9026123 242.00443848 208.73100586 242.80575195 208.55419922 243.63134766 C198.95420507 288.06241976 174.47979594 330.40627404 138.07421875 358.203125 C136.65496094 359.36328125 136.65496094 359.36328125 135.20703125 360.546875 C103.9728107 385.66141366 62.44130741 402.17473208 22.1484375 402.40625 C21.32710831 402.41326431 20.50577911 402.42027863 19.65956116 402.42750549 C17.02689052 402.44489922 14.39444472 402.45135674 11.76171875 402.453125 C10.86271851 402.45379974 9.96371826 402.45447449 9.03747559 402.45516968 C-3.85662957 402.43976815 -16.31004334 402.09664287 -28.92578125 399.203125 C-29.72709473 399.03151855 -30.5284082 398.85991211 -31.35400391 398.68310547 C-82.69480356 387.59016189 -128.60469136 356.81472617 -157.50341797 312.80029297 C-176.51755155 282.90241036 -189.9230271 248.10809831 -190.12890625 212.27734375 C-190.13592056 211.45601456 -190.14293488 210.63468536 -190.15016174 209.78846741 C-190.16755547 207.15579677 -190.17401299 204.52335097 -190.17578125 201.890625 C-190.17645599 200.99162476 -190.17713074 200.09262451 -190.17782593 199.16638184 C-190.1624244 186.27227668 -189.81929912 173.81886291 -186.92578125 161.203125 C-186.7541748 160.40181152 -186.58256836 159.60049805 -186.40576172 158.77490234 C-178.26063807 121.07731932 -160.06430235 88.89654406 -134.11328125 60.640625 C-133.61062744 60.09301514 -133.10797363 59.54540527 -132.59008789 58.98120117 C-99.63674399 23.86645342 -48.24936761 0.27723499 0 0 Z " fill="#FDFEFE" transform="translate(245.92578125,54.796875)"/>
<path d="M0 0 C41.17923195 19.62698458 72.82226761 50.46476177 88.3125 93.95703125 C94.23827002 111.3049852 96.43071882 128.84842098 96.375 147.125 C96.37412384 147.83755951 96.37324768 148.55011902 96.37234497 149.28427124 C96.2068115 190.4081685 79.08024451 224.86744709 52 255 C51.09701172 256.01320313 51.09701172 256.01320313 50.17578125 257.046875 C24.06209748 284.67344221 -15.38254903 299.73225887 -52.79296875 301.2265625 C-95.78733628 302.29289106 -134.52358645 286.0203195 -165.84375 257.08984375 C-190.66733095 233.03075714 -208.93609093 195.43769814 -210.11157227 160.703125 C-210.76073324 119.06689526 -200.55274763 85.24053703 -175 52 C-174.01 52.495 -174.01 52.495 -173 53 C-174.12535156 54.61841797 -174.12535156 54.61841797 -175.2734375 56.26953125 C-199.53697428 91.60834 -210.20152383 129.1099119 -203 172 C-202.81695312 173.20269531 -202.63390625 174.40539062 -202.4453125 175.64453125 C-197.82483224 202.42620389 -184.47297199 225.42319489 -166 245 C-165.33871094 245.72574219 -164.67742187 246.45148438 -163.99609375 247.19921875 C-144.06716521 268.2626214 -116.93397989 281.61947299 -89 288 C-87.86667236 288.27046143 -87.86667236 288.27046143 -86.71044922 288.54638672 C-83.29770872 289.11753353 -79.93112449 289.20013327 -76.48046875 289.23828125 C-75.75324615 289.2480751 -75.02602356 289.25786896 -74.27676392 289.26795959 C-50.93176075 289.51695685 -28.75261075 288.28375946 -7 279 C-6.28231445 278.69545898 -5.56462891 278.39091797 -4.82519531 278.07714844 C28.70831846 263.60044925 55.73583719 235.91584485 69.47265625 201.984375 C80.40131628 173.85662475 83.15960579 142.26596489 75 113 C74.81808105 112.33403809 74.63616211 111.66807617 74.44873047 110.98193359 C68.19275401 88.78132367 56.3005007 70.00055633 41 53 C40.36964844 52.28585938 39.73929688 51.57171875 39.08984375 50.8359375 C27.02285469 37.94680194 11.65367938 29.69752981 -4 22 C-5.33379078 21.33424901 -6.66727128 20.66787453 -8 20 C-2.38297872 2.38297872 -2.38297872 2.38297872 0 0 Z " fill="#163F63" transform="translate(314,121)"/>
<path d="M0 0 C0.80297516 0.37437195 1.60595032 0.7487439 2.43325806 1.13446045 C5.07238632 2.36603891 7.70799742 3.60496586 10.34375 4.84375 C13.11536915 6.13902154 15.88789245 7.4323446 18.66043091 8.72564697 C20.55841336 9.61119894 22.45609514 10.4973956 24.35348511 11.38421631 C33.87171265 15.83151925 43.41777037 20.21733588 52.96875 24.59375 C63.61223879 29.47168164 74.2390124 34.38201823 84.84375 39.34375 C84.84375 50.23375 84.84375 61.12375 84.84375 72.34375 C73.59334194 68.96862758 73.59334194 68.96862758 68.96459961 67.14233398 C67.9248851 66.73438095 66.88517059 66.32642792 65.81394958 65.90611267 C64.71905716 65.47174393 63.62416473 65.03737518 62.49609375 64.58984375 C61.32655655 64.12949234 60.15701935 63.66914093 58.95204163 63.19483948 C55.85180537 61.97357332 52.75301012 60.74878301 49.65484619 59.52227783 C46.59083967 58.31042967 43.52477951 57.10379897 40.45898438 55.89648438 C39.25633942 55.42215973 38.05369446 54.94783508 36.81460571 54.45913696 C34.39908382 53.50664001 31.98304934 52.55544193 29.5664978 51.6055603 C23.58823586 49.24872356 17.63308092 46.85040089 11.70751953 44.36376953 C10.57270645 43.89302505 9.43789337 43.42228058 8.26869202 42.93727112 C6.13189369 42.04854843 4.00046607 41.14675612 1.87571716 40.229599 C-7.81895792 36.22013813 -13.97216497 38.40455939 -23.40625 42.0703125 C-24.4015976 42.4504248 -25.39694519 42.83053711 -26.42245483 43.22216797 C-29.66972101 44.46419032 -32.91294495 45.71642477 -36.15625 46.96875 C-38.39769614 47.8279717 -40.63939768 48.68652741 -42.88134766 49.54443359 C-49.64337335 52.13456784 -56.40029574 54.73782782 -63.15625 57.34375 C-65.18976219 58.12764685 -67.22329023 58.9115026 -69.25683594 59.6953125 C-70.21724792 60.06556549 -71.17765991 60.43581848 -72.16717529 60.81729126 C-74.02457176 61.53326272 -75.88203247 62.24906755 -77.73956299 62.96469116 C-81.98558088 64.6006526 -86.23049349 66.23931944 -90.47265625 67.88525391 C-91.97915471 68.46780437 -93.48566443 69.0503257 -94.9921875 69.6328125 C-96.00277725 70.02678223 -96.00277725 70.02678223 -97.03378296 70.42871094 C-100.04388261 71.59016292 -102.99644465 72.67083769 -106.15625 73.34375 C-106.35469229 69.16310528 -106.49946495 64.98498001 -106.59570312 60.80102539 C-106.63582871 59.3796412 -106.69034912 57.95858514 -106.75976562 56.53833008 C-106.85735951 54.48957619 -106.90226565 52.44519228 -106.9375 50.39453125 C-106.97939453 49.16387939 -107.02128906 47.93322754 -107.06445312 46.6652832 C-106.06701833 43.01740675 -105.7499755 42.66715468 -102.7434082 40.72607422 C-101.22923877 39.90394235 -99.69886341 39.11118323 -98.15625 38.34375 C-97.37506805 37.93337997 -96.59388611 37.52300995 -95.78903198 37.10020447 C-93.20176258 35.75859501 -90.59491998 34.46357157 -87.98046875 33.17578125 C-87.01583206 32.69606369 -86.05119537 32.21634613 -85.05732727 31.72209167 C-81.98803323 30.19628389 -78.9161185 28.67585628 -75.84375 27.15625 C-61.51774666 20.05939666 -47.27128685 12.85192619 -33.15625 5.34375 C-29.54108384 3.42806015 -25.9185358 1.52954327 -22.28125 -0.34375 C-21.45496094 -0.78396484 -20.62867188 -1.22417969 -19.77734375 -1.67773438 C-18.57658203 -2.29165039 -18.57658203 -2.29165039 -17.3515625 -2.91796875 C-16.66078613 -3.27850342 -15.97000977 -3.63903809 -15.25830078 -4.01049805 C-9.9427592 -5.64343736 -4.72586719 -2.23558042 0 0 Z " fill="#252122" transform="translate(266.15625,184.65625)"/>
<path d="M0 0 C0.01030746 0.99336365 0.02061493 1.98672729 0.03123474 3.01019287 C0.12896105 12.36847553 0.23169447 21.72669159 0.33933926 31.08486557 C0.3945202 35.89607213 0.44793252 40.70728483 0.49731445 45.51855469 C0.54502918 50.16106689 0.5973746 54.80350584 0.65294075 59.44593048 C0.67333208 61.21773709 0.69205046 62.98956377 0.70907402 64.76140594 C0.73318936 67.24172723 0.76323414 69.72191074 0.79467773 72.20214844 C0.80331093 73.30266541 0.80331093 73.30266541 0.81211853 74.42541504 C0.77879968 79.32652736 0.77879968 79.32652736 2 84 C5.1184325 85.0394775 7.27475586 85.11494838 10.54296875 85.09765625 C12.15268555 85.09282227 12.15268555 85.09282227 13.79492188 85.08789062 C14.91447266 85.07951172 16.03402344 85.07113281 17.1875 85.0625 C18.31865234 85.05798828 19.44980469 85.05347656 20.61523438 85.04882812 C23.41020927 85.03703498 26.2050782 85.0205765 29 85 C28.95903198 83.32043213 28.95903198 83.32043213 28.91723633 81.60693359 C28.83012086 77.43553348 28.81580588 73.26645391 28.82299805 69.09423828 C28.81604011 67.2919707 28.78957429 65.48966534 28.74291992 63.68798828 C28.44677335 51.63582109 28.44677335 51.63582109 30 47 C33.25841225 43.62057025 36.47151145 42.11689761 41 41 C41.66 41 42.32 41 43 41 C43.02505615 42.26183105 43.0501123 43.52366211 43.07592773 44.82373047 C43.16992106 49.49408569 43.27016131 54.16428937 43.37231445 58.83447266 C43.41569395 60.85787416 43.45736678 62.88131299 43.49731445 64.90478516 C43.55494408 67.80903384 43.6186594 70.71309411 43.68359375 73.6171875 C43.70030624 74.52556366 43.71701874 75.43393982 43.73423767 76.36984253 C43.7641555 77.63092331 43.7641555 77.63092331 43.79467773 78.91748047 C43.81799416 80.03000687 43.81799416 80.03000687 43.84178162 81.16500854 C43.89473496 83.09674104 43.89473496 83.09674104 45 85 C49.5761062 85.44435295 49.5761062 85.44435295 53.69848633 83.86206055 C55.5379431 81.23037103 55.43385929 79.21176894 55.51171875 76.01953125 C55.56489258 74.27446289 55.56489258 74.27446289 55.61914062 72.49414062 C55.64169922 71.27919922 55.66425781 70.06425781 55.6875 68.8125 C55.72166016 67.58595703 55.75582031 66.35941406 55.79101562 65.09570312 C55.87358776 62.06412623 55.9384673 59.03207691 56 56 C59.3 54.35 62.6 52.7 66 51 C66.029729 52.38505737 66.029729 52.38505737 66.06005859 53.7980957 C66.13817739 57.22561174 66.22486997 60.65268798 66.31738281 64.07983398 C66.35565347 65.56282212 66.39050978 67.04590248 66.421875 68.52905273 C66.467568 70.66163072 66.52555338 72.79357491 66.5859375 74.92578125 C66.6173584 76.20880127 66.6487793 77.49182129 66.68115234 78.8137207 C66.76379228 82.15387459 66.76379228 82.15387459 69 85 C72.58357241 85.25015873 72.58357241 85.25015873 76 85 C77.14294314 81.57117059 77.20964472 78.75917162 77.31640625 75.14453125 C77.3475779 74.15207649 77.3475779 74.15207649 77.37937927 73.13957214 C77.44464727 71.03065148 77.50365344 68.92160865 77.5625 66.8125 C77.60570689 65.38084685 77.64932188 63.94920596 77.69335938 62.51757812 C77.80030506 59.01184846 77.90163641 55.50598214 78 52 C81.3 50.35 84.6 48.7 88 47 C88.0997145 52.08620644 88.17186281 57.17182992 88.21972656 62.25878906 C88.23970285 63.98512702 88.26689372 65.71139853 88.30175781 67.4375 C88.72285545 88.8391684 88.72285545 88.8391684 82.48095703 95.65991211 C78.01996379 99.55599088 74.98435766 100.28190507 69.265625 100.2265625 C66.22821342 99.92282134 64.32614551 98.95096075 62 97 C62 96.34 62 95.68 62 95 C61.52691406 95.3609375 61.05382812 95.721875 60.56640625 96.09375 C56.04450059 99.26701713 52.62276181 100.74003999 47.0546875 100.44140625 C43.98121595 99.78113575 42.15129936 98.22069611 40 96 C39.443125 96.28875 38.88625 96.5775 38.3125 96.875 C31.25747097 100.30717628 25.34642451 100.3667674 17.5625 100.375 C16.34755859 100.39949219 15.13261719 100.42398438 13.88085938 100.44921875 C5.72753776 100.47602419 2.05454761 99.78424443 -3.875 94.25 C-4.24625 93.8375 -4.6175 93.425 -5 93 C-5.226875 93.61875 -5.45375 94.2375 -5.6875 94.875 C-7.46108491 97.74651842 -8.77622983 98.0268985 -12 99 C-14.68010949 99.16496802 -17.2499358 99.23378795 -19.92578125 99.1953125 C-20.67337204 99.1924826 -21.42096283 99.18965271 -22.19120789 99.18673706 C-24.5651388 99.17559469 -26.93868425 99.15050162 -29.3125 99.125 C-30.9277289 99.11496249 -32.54296376 99.10583799 -34.15820312 99.09765625 C-38.10561594 99.07567489 -42.05274274 99.04118657 -46 99 C-45.47599609 97.96939453 -45.47599609 97.96939453 -44.94140625 96.91796875 C-44.48636719 96.01691406 -44.03132812 95.11585938 -43.5625 94.1875 C-43.11003906 93.29417969 -42.65757812 92.40085937 -42.19140625 91.48046875 C-40.9168395 88.96000522 -40.9168395 88.96000522 -40 86 C-39.03175293 85.970271 -39.03175293 85.970271 -38.04394531 85.93994141 C-35.11222779 85.84453672 -32.18120768 85.73492029 -29.25 85.625 C-28.23421875 85.5940625 -27.2184375 85.563125 -26.171875 85.53125 C-25.1921875 85.49257813 -24.2125 85.45390625 -23.203125 85.4140625 C-22.30239258 85.3826416 -21.40166016 85.3512207 -20.47363281 85.31884766 C-17.87586865 84.98399965 -16.20608897 84.3957016 -14 83 C-12.51166182 80.02332364 -12.82105003 76.97080848 -12.79467773 73.70458984 C-12.78477814 72.95327286 -12.77487854 72.20195587 -12.76467896 71.4278717 C-12.73303477 68.93892594 -12.70829505 66.44996107 -12.68359375 63.9609375 C-12.66302674 62.23743182 -12.64203033 60.51393121 -12.62062073 58.79043579 C-12.56537393 54.2497976 -12.51597617 49.7091137 -12.46777344 45.168396 C-12.41757744 40.53670168 -12.36188146 35.90507391 -12.30664062 31.2734375 C-12.19902716 22.18234849 -12.09758928 13.09120175 -12 4 C-10.56570999 3.32645501 -9.12742943 2.66140299 -7.6875 2 C-6.48673828 1.443125 -6.48673828 1.443125 -5.26171875 0.875 C-3 0 -3 0 0 0 Z " fill="#282425" transform="translate(263,241)"/>
<path d="M0 0 C-1.5904512 4.3633321 -3.74175922 8.24786385 -6.0625 12.25 C-6.60874023 13.20519531 -6.60874023 13.20519531 -7.16601562 14.1796875 C-9.85925752 18.85925752 -9.85925752 18.85925752 -11 20 C-11.0928125 21.8871875 -11.0928125 21.8871875 -11.1875 23.8125 C-11.41796875 25.99609375 -11.41796875 25.99609375 -12 28 C-15 30.375 -15 30.375 -18 32 C-18.495 32.99 -18.495 32.99 -19 34 C-18.13375 34.268125 -17.2675 34.53625 -16.375 34.8125 C-13 36 -13 36 -10.1875 37.6875 C-4.84659934 39.88669439 -0.03645432 38.69162599 5.3125 36.875 C8.21402383 35.93031782 9.17976659 36.1461127 12 37 C11.29423828 37.96099609 11.29423828 37.96099609 10.57421875 38.94140625 C3.6877558 48.5083144 1.37610844 56.32736257 0 68 C-0.66 68 -1.32 68 -2 68 C-2.53173828 66.37191406 -2.53173828 66.37191406 -3.07421875 64.7109375 C-6.0020197 55.95840125 -6.0020197 55.95840125 -12.2890625 49.6015625 C-17.92576444 46.94365132 -17.92576444 46.94365132 -24 46 C-24.62457273 49.43515002 -25 52.49064814 -25 56 C-25.99 56.33 -26.98 56.66 -28 57 C-28.09796875 57.64324219 -28.1959375 58.28648437 -28.296875 58.94921875 C-29.55146468 66.53083396 -31.61015721 73.70285865 -34 81 C-34.66 81 -35.32 81 -36 81 C-38.33453629 73.06257663 -39.56547573 65.27603815 -40.26513672 57.05712891 C-40.610824 53.31150558 -40.87501928 51.18747108 -43 48 C-45.05003955 46.80767387 -45.05003955 46.80767387 -47 46 C-46.67 44.68 -46.34 43.36 -46 42 C-45.01 42 -44.02 42 -43 42 C-42.60949049 39.63330192 -42.60949049 39.63330192 -43 37 C-44.96879515 35.18773457 -44.96879515 35.18773457 -47.671875 33.84375 C-48.64640625 33.29589844 -49.6209375 32.74804688 -50.625 32.18359375 C-51.65625 31.62800781 -52.6875 31.07242188 -53.75 30.5 C-55.77075276 29.39474056 -57.78658422 28.28042576 -59.796875 27.15625 C-60.69760742 26.66962891 -61.59833984 26.18300781 -62.52636719 25.68164062 C-65.30804635 23.79058199 -67.03066378 21.70769377 -69 19 C-68.34 17.68 -67.68 16.36 -67 15 C-59.38093538 15.03585442 -46.68979896 17.31020104 -41 23 C-36.85723125 23.24733137 -36.85723125 23.24733137 -33 22 C-33.495 18.535 -33.495 18.535 -34 15 C-33.44675049 15.14469727 -32.89350098 15.28939453 -32.32348633 15.43847656 C-28.77365298 16.13512712 -26.13350096 16.56611525 -22.82177734 14.91210938 C-20.66712574 13.28807711 -18.67483255 11.57475 -16.6875 9.75 C-15.31645812 8.55723204 -13.94536597 7.36452186 -12.57421875 6.171875 C-11.98213623 5.6365918 -11.39005371 5.10130859 -10.7800293 4.54980469 C-5.06916506 -0.42243042 -5.06916506 -0.42243042 0 0 Z " fill="#163F63" transform="translate(294,73)"/>
<path d="M0 0 C0.09286979 7.58889362 0.16385075 15.17772797 0.20724869 22.76706123 C0.22808269 26.29152694 0.25632202 29.81560253 0.30175781 33.33984375 C0.35371956 37.39587043 0.37297967 41.45149029 0.390625 45.5078125 C0.41127014 46.76739777 0.43191528 48.02698303 0.45318604 49.32473755 C0.45596704 60.19355203 0.45596704 60.19355203 -4 65 C-8.97760103 69.37425545 -13.70058452 69.21038103 -20 69.25 C-20.81984375 69.270625 -21.6396875 69.29125 -22.484375 69.3125 C-23.27328125 69.31765625 -24.0621875 69.3228125 -24.875 69.328125 C-25.59429687 69.3374707 -26.31359375 69.34681641 -27.0546875 69.35644531 C-29.52549545 68.90371193 -30.41266302 67.89057824 -32 66 C-36.07964281 67.30155006 -36.07964281 67.30155006 -40 69 C-41.52148326 69.08372659 -43.04655778 69.10730027 -44.5703125 69.09765625 C-45.46621094 69.09443359 -46.36210937 69.09121094 -47.28515625 69.08789062 C-48.69087891 69.07532227 -48.69087891 69.07532227 -50.125 69.0625 C-51.06988281 69.05798828 -52.01476562 69.05347656 -52.98828125 69.04882812 C-55.3255477 69.03702375 -57.66278169 69.01908799 -60 69 C-60 64.71 -60 60.42 -60 56 C-54.06 55.67 -48.12 55.34 -42 55 C-41.67 48.07 -41.34 41.14 -41 34 C-33 30 -33 30 -29 29 C-28.97494385 29.72179443 -28.9498877 30.44358887 -28.92407227 31.18725586 C-28.80848698 34.437535 -28.68559226 37.68749688 -28.5625 40.9375 C-28.52318359 42.07380859 -28.48386719 43.21011719 -28.44335938 44.38085938 C-28.40146484 45.46044922 -28.35957031 46.54003906 -28.31640625 47.65234375 C-28.27974854 48.65257568 -28.24309082 49.65280762 -28.20532227 50.68334961 C-28.25328159 52.96069188 -28.25328159 52.96069188 -27 54 C-24.85692104 54.12537741 -22.70921114 54.17574364 -20.5625 54.1875 C-19.38816406 54.20167969 -18.21382812 54.21585937 -17.00390625 54.23046875 C-13.88503098 54.31899256 -13.88503098 54.31899256 -12 52 C-11.66983494 49.90019956 -11.66983494 49.90019956 -11.68115234 47.45849609 C-11.66128265 46.51767181 -11.64141296 45.57684753 -11.62094116 44.60751343 C-11.60938995 43.58976837 -11.59783875 42.57202332 -11.5859375 41.5234375 C-11.56657135 40.48305328 -11.5472052 39.44266907 -11.5272522 38.37075806 C-11.46734273 35.0389228 -11.42102548 31.70705321 -11.375 28.375 C-11.3368307 26.11977637 -11.2977796 23.86456748 -11.2578125 21.609375 C-11.16163201 16.07304725 -11.07661804 10.53663115 -11 5 C-9.35538655 4.16426177 -7.70927487 3.33147118 -6.0625 2.5 C-5.14597656 2.0359375 -4.22945312 1.571875 -3.28515625 1.09375 C-1 0 -1 0 0 0 Z " fill="#272324" transform="translate(218,272)"/>
<path d="M0 0 C8.99254472 2.85985636 17.75915631 6.30019583 26.5625 9.6875 C28.15943626 10.30030991 29.75644091 10.91294165 31.35351562 11.52539062 C35.23646908 13.01487267 39.11848724 14.50676782 43 16 C43 18.64 43 21.28 43 24 C37.45567972 23.40881888 32.65615132 21.99642572 27.44140625 20.05859375 C26.65225327 19.77146011 25.86310028 19.48432648 25.05003357 19.18849182 C22.5518069 18.27786274 20.05715873 17.35785252 17.5625 16.4375 C15.86025445 15.81513013 14.15778256 15.19337896 12.45507812 14.57226562 C8.30073328 13.05532054 4.14956937 11.52995743 0 10 C0 6.7 0 3.4 0 0 Z " fill="#DCBD72" transform="translate(277,243)"/>
<path d="M0 0 C0 2.97 0 5.94 0 9 C-5.80300274 12.18596229 -11.55480212 14.19248178 -17.8984375 16.06640625 C-21.67720078 17.20384255 -25.32400213 18.57317865 -29 20 C-30.93492672 20.73596798 -32.87258379 21.46478612 -34.8125 22.1875 C-35.72644531 22.53167969 -36.64039063 22.87585938 -37.58203125 23.23046875 C-40 24 -40 24 -43 24 C-43 21.36 -43 18.72 -43 16 C-34.18691385 12.29045952 -25.32996614 8.70225311 -16.4375 5.1875 C-15.80803467 4.93589111 -15.17856934 4.68428223 -14.5300293 4.42504883 C-12.68734697 3.68859178 -10.84176093 2.95941307 -8.99609375 2.23046875 C-7.91513428 1.80145264 -6.8341748 1.37243652 -5.72045898 0.93041992 C-3 0 -3 0 0 0 Z " fill="#DCBD72" transform="translate(235,241)"/>
<path d="M0 0 C2.31 1.98 4.62 3.96 7 6 C10.56311466 4.21844267 12.35645475 2.83236991 15 0 C19.2742558 1.5830577 21.26531794 4.50568404 24 8 C22.4404735 11.82792868 20.16368164 14.36359864 17 17 C14.9375 17.125 14.9375 17.125 13 16 C10.75 13.4375 10.75 13.4375 9 11 C5.18315774 12.55500981 2.80804268 15.03595495 0 18 C-2.64 15.36 -5.28 12.72 -8 10 C-5.77502475 5.55004949 -3.55366005 3.39915309 0 0 Z " fill="#2C2829" transform="translate(192,345)"/>
<path d="M0 0 C0.66 0.33 1.32 0.66 2 1 C1.24976563 2.07894531 0.49953125 3.15789062 -0.2734375 4.26953125 C-12.16870262 21.59447868 -23.32979059 39.96846292 -27 61 C-27.99 61 -28.98 61 -30 61 C-31 59 -31 59 -29.84765625 55.2109375 C-29.26385284 53.59485044 -28.66793012 51.98311013 -28.0625 50.375 C-27.744021 49.52341309 -27.42554199 48.67182617 -27.09741211 47.79443359 C-20.45563392 30.43953666 -11.17577491 14.83168 0 0 Z " fill="#294E70" transform="translate(139,173)"/>
<path d="M0 0 C1.10802635 3.32407906 0.93700298 3.9016368 -0.1796875 7.0546875 C-0.44910156 7.83457031 -0.71851562 8.61445313 -0.99609375 9.41796875 C-1.28613281 10.22878906 -1.57617188 11.03960937 -1.875 11.875 C-4.37084954 18.81777205 -4.37084954 18.81777205 -6 26 C-6.99 26 -7.98 26 -9 26 C-10 24 -10 24 -9.51855469 22.1081543 C-9.09944824 20.9776062 -9.09944824 20.9776062 -8.671875 19.82421875 C-8.36636719 18.99599609 -8.06085938 18.16777344 -7.74609375 17.31445312 C-7.41738281 16.44755859 -7.08867188 15.58066406 -6.75 14.6875 C-6.43675781 13.83220703 -6.12351562 12.97691406 -5.80078125 12.09570312 C-4.19739069 7.80114459 -2.56162858 3.83453661 0 0 Z " fill="#274D6F" transform="translate(118,208)"/>
<path d="M0 0 C0.66 0.33 1.32 0.66 2 1 C-1.3 5.95 -4.6 10.9 -8 16 C-8.66 15.34 -9.32 14.68 -10 14 C-9.16855469 12.86111328 -9.16855469 12.86111328 -8.3203125 11.69921875 C-7.59585938 10.70535156 -6.87140625 9.71148437 -6.125 8.6875 C-5.40570313 7.70136719 -4.68640625 6.71523437 -3.9453125 5.69921875 C-2.5944065 3.82476885 -1.28164671 1.92247007 0 0 Z " fill="#3F617E" transform="translate(139,173)"/>
<path d="M0 0 C0.33 0 0.66 0 1 0 C0.67 3.3 0.34 6.6 0 10 C-0.99 10 -1.98 10 -3 10 C-3.33 9.34 -3.66 8.68 -4 8 C-1.48571429 1.48571429 -1.48571429 1.48571429 0 0 Z " fill="#315575" transform="translate(112,224)"/>
<path d="M0 0 C0.66 0.66 1.32 1.32 2 2 C1.01 3.98 0.02 5.96 -1 8 C-1.66 7.67 -2.32 7.34 -3 7 C-1.125 1.125 -1.125 1.125 0 0 Z " fill="#365A79" transform="translate(121,201)"/>
</svg>
