<?xml version="1.0" encoding="UTF-8"?>
<svg version="1.1" xmlns="http://www.w3.org/2000/svg" width="220" height="220">
<path d="M0 0 C2.52528355 2.20913522 4.94588395 4.48543242 7.33984375 6.8359375 C8.10039062 7.57199219 8.8609375 8.30804688 9.64453125 9.06640625 C24.7652963 24.68422068 31.95219879 46.11482537 32.65234375 67.5859375 C32.13604832 92.04543356 22.61602191 113.78347963 5.33984375 130.8359375 C4.22802734 131.94582031 4.22802734 131.94582031 3.09375 133.078125 C-14.70452482 149.86402089 -37.10401924 155.77586308 -60.95703125 155.18359375 C-84.24349033 154.10005104 -104.79805467 143.08325476 -120.64453125 126.30078125 C-136.5060347 108.64959489 -143.64725399 85.48019115 -142.79638672 61.99414062 C-141.25801113 37.62274245 -129.06343004 16.3609866 -111.20800781 0.15429688 C-79.6367872 -26.73601722 -31.6899107 -25.78004483 0 0 Z " fill="#FCFCFC" transform="translate(165.66015625,42.1640625)"/>
<path d="M0 0 C9.84653531 3.74691167 17.52537943 9.66426596 25 17 C25.639375 17.61488281 26.27875 18.22976562 26.9375 18.86328125 C38.85238914 31.28348935 42.47688198 47.30301335 42.27709961 63.94970703 C41.83071396 82.23752058 35.6931108 96.60657964 23 110 C22.31421875 110.72703125 21.6284375 111.4540625 20.921875 112.203125 C7.96239276 124.77862258 -9.8176107 129.30210404 -27.39648438 129.38720703 C-44.06091947 129.10481276 -59.33290312 121.73359942 -71.13671875 110.125 C-85.80957181 94.75952147 -89.63512677 77.29872202 -89.34375 56.73046875 C-88.90234262 45.49481175 -84.1931233 36.23647943 -78 27 C-77.67 27.66 -77.34 28.32 -77 29 C-78.32101389 31.85021049 -79.77129205 34.58095052 -81.28710938 37.33007812 C-85.53615491 45.3657474 -86.37020337 53.31819289 -86.3125 62.3125 C-86.30686035 63.23603271 -86.3012207 64.15956543 -86.29541016 65.11108398 C-85.99655606 81.95491486 -79.96458509 95.15940025 -68 107 C-67.40832031 107.62519531 -66.81664063 108.25039062 -66.20703125 108.89453125 C-55.15425178 119.70332 -40.16890315 124.36822064 -25.08300781 124.3034668 C-9.57804239 123.90622915 5.86040884 117.60879821 17.15234375 106.97265625 C29.83875349 93.50704284 34.67636397 78.2616543 34.54101562 60.12036133 C34.00679101 44.3375672 26.82998189 30.92504273 15.47265625 20.07421875 C10.15679509 15.61494185 4.24246809 12.01209999 -2 9 C-1.51421457 5.87709365 -1.0013988 3.00419641 0 0 Z " fill="#1F4669" transform="translate(134,52)"/>
<path d="M0 0 C0.68851044 0.32678238 1.37702087 0.65356476 2.08639526 0.99024963 C4.26766879 2.02764839 6.44250582 3.07776988 8.6171875 4.12890625 C10.80025898 5.17366533 12.9845774 6.21576611 15.16940308 7.2568512 C16.52302848 7.90298858 17.87541607 8.55172769 19.22634888 9.20347595 C22.61779594 10.83378688 25.99152926 12.29114295 29.4921875 13.69140625 C29.4921875 18.31140625 29.4921875 22.93140625 29.4921875 27.69140625 C25.28472896 26.99016316 22.55982423 26.49226493 18.81640625 24.9296875 C17.9557959 24.57342285 17.09518555 24.2171582 16.20849609 23.85009766 C13.45168606 22.67412962 10.69968329 21.48760436 7.94921875 20.296875 C7.02044922 19.89919922 6.09167969 19.50152344 5.13476562 19.09179688 C3.23103543 18.27591251 1.33261527 17.44753677 -0.56054688 16.60742188 C-7.32674399 13.74534407 -11.38395704 13.32765431 -18.47265625 15.671875 C-19.45363281 16.07019531 -20.43460938 16.46851562 -21.4453125 16.87890625 C-26.61292569 18.93876597 -31.79430603 20.93920603 -37.0078125 22.87890625 C-42.17749617 24.79874623 -42.17749617 24.79874623 -47.2890625 26.8671875 C-49.5078125 27.69140625 -49.5078125 27.69140625 -52.5078125 27.69140625 C-52.5078125 23.40140625 -52.5078125 19.11140625 -52.5078125 14.69140625 C-47.23587821 11.94396359 -41.9524096 9.22068497 -36.65698242 6.51879883 C-34.85838903 5.59691244 -33.06308348 4.66858133 -31.27124023 3.73364258 C-28.69057239 2.38854552 -26.09885273 1.06729545 -23.50390625 -0.25 C-22.70883163 -0.67076309 -21.91375702 -1.09152618 -21.09458923 -1.52503967 C-13.16284574 -5.49445747 -7.78493625 -3.80356171 0 0 Z " fill="#282425" transform="translate(121.5078125,82.30859375)"/>
<path d="M0 0 C1.32 0 2.64 0 4 0 C4.02505615 1.05501709 4.0501123 2.11003418 4.07592773 3.19702148 C4.16984109 7.09770628 4.27010034 10.99820625 4.37231445 14.89868164 C4.41572439 16.58939299 4.45739489 18.28014991 4.49731445 19.97094727 C4.55487094 22.39613606 4.61860649 24.82109415 4.68359375 27.24609375 C4.70030624 28.00651474 4.71701874 28.76693573 4.73423767 29.55039978 C4.52091268 33.07082031 4.52091268 33.07082031 6 36 C7.68608966 36.07205511 9.37500659 36.08386068 11.0625 36.0625 C11.98160156 36.05347656 12.90070313 36.04445312 13.84765625 36.03515625 C14.55792969 36.02355469 15.26820312 36.01195312 16 36 C16.04898438 34.86820313 16.09796875 33.73640625 16.1484375 32.5703125 C16.22346514 31.08851661 16.29901297 29.606747 16.375 28.125 C16.4059375 27.37863281 16.436875 26.63226563 16.46875 25.86328125 C16.7734375 20.2265625 16.7734375 20.2265625 19 18 C19.99 18 20.98 18 22 18 C22.495 26.415 22.495 26.415 23 35 C24.32 35 25.64 35 27 35 C27.33 31.04 27.66 27.08 28 23 C29.65 22.67 31.3 22.34 33 22 C33 26.62 33 31.24 33 36 C34.32 36 35.64 36 37 36 C37 31.38 37 26.76 37 22 C38.65 21.34 40.3 20.68 42 20 C42.08132187 22.56314499 42.14064175 25.12368418 42.1875 27.6875 C42.21263672 28.40873047 42.23777344 29.12996094 42.26367188 29.87304688 C42.32679275 34.48087064 41.79834732 37.31351222 39 41 C38 42 38 42 34.82885742 42.11352539 C33.42105127 42.11336614 32.01323934 42.1076644 30.60546875 42.09765625 C29.86170486 42.0962413 29.11794098 42.09482635 28.35163879 42.09336853 C25.9635523 42.08775443 23.57555825 42.07521392 21.1875 42.0625 C19.58789199 42.05748555 17.9882825 42.05292255 16.38867188 42.04882812 C13.44553744 42.04064778 10.50243848 42.0298972 7.55932617 42.01586914 C5.03957027 42.00463489 2.51978094 42 0 42 C-5 42 -10 42 -15 42 C-14.01 39.03 -14.01 39.03 -13 36 C-7.555 35.505 -7.555 35.505 -2 35 C-1.97494385 33.97527588 -1.9498877 32.95055176 -1.92407227 31.89477539 C-1.83015516 28.10590324 -1.72989683 24.31722119 -1.62768555 20.52856445 C-1.58427703 18.88635697 -1.54260642 17.24410261 -1.50268555 15.60180664 C-1.4451256 13.24611255 -1.38139108 10.89065572 -1.31640625 8.53515625 C-1.29133751 7.42733543 -1.29133751 7.42733543 -1.26576233 6.2971344 C-1.11387171 1.11387171 -1.11387171 1.11387171 0 0 Z " fill="#302C2D" transform="translate(109,104)"/>
<path d="M0 0 C-1.41807378 4.47238653 -3.11304374 8.71146306 -5 13 C-5.66 13 -6.32 13 -7 13 C-6.01 14.485 -6.01 14.485 -5 16 C-2.56306689 16.36416047 -2.56306689 16.36416047 0.125 16.1875 C1.03507812 16.16042969 1.94515625 16.13335937 2.8828125 16.10546875 C3.58148438 16.07066406 4.28015625 16.03585938 5 16 C4.70351562 16.56203125 4.40703125 17.1240625 4.1015625 17.703125 C2.99056497 20.01967305 2.16535294 22.30709092 1.375 24.75 C1.11460938 25.54921875 0.85421875 26.3484375 0.5859375 27.171875 C0.39257812 27.77515625 0.19921875 28.3784375 0 29 C-2 27 -2 27 -2.6875 25.0625 C-4.72949843 21.85364533 -7.48144608 21.30316812 -11 20 C-10.80664062 20.56460938 -10.61328125 21.12921875 -10.4140625 21.7109375 C-9.91098454 24.49210435 -10.41326764 25.98685343 -11.375 28.625 C-11.65085937 29.40101562 -11.92671875 30.17703125 -12.2109375 30.9765625 C-13 33 -13 33 -14 35 C-14.66 35 -15.32 35 -16 35 C-16.18175781 33.66195312 -16.18175781 33.66195312 -16.3671875 32.296875 C-16.53476563 31.12640625 -16.70234375 29.9559375 -16.875 28.75 C-17.03742188 27.58984375 -17.19984375 26.4296875 -17.3671875 25.234375 C-17.91820431 22.41806687 -18.55796482 20.44782443 -20 18 C-19.34 18 -18.68 18 -18 18 C-20.75709532 15.00807322 -23.83635531 13.25956242 -27.35546875 11.28125 C-27.89816406 10.8584375 -28.44085938 10.435625 -29 10 C-29 9.01 -29 8.02 -29 7 C-23.54520815 7.56820748 -19.08940744 8.94637945 -14 11 C-14 9.68 -14 8.36 -14 7 C-13.13375 6.773125 -12.2675 6.54625 -11.375 6.3125 C-8.43184642 5.16794028 -7.04238317 4.36813118 -4.75 2.375 C-2 0 -2 0 0 0 Z " fill="#234A6C" transform="translate(126,31)"/>
<path d="M0 0 C0.0871142 4.08319884 0.14043048 8.16615864 0.1875 12.25 C0.21263672 13.40886719 0.23777344 14.56773437 0.26367188 15.76171875 C0.27333984 16.87675781 0.28300781 17.99179688 0.29296875 19.140625 C0.3086792 20.16704102 0.32438965 21.19345703 0.34057617 22.25097656 C-0.05102118 25.41182687 -0.74652027 26.77278843 -3 29 C-6.1015625 29.35546875 -6.1015625 29.35546875 -9.625 29.1875 C-11.74914832 29.10075222 -13.87432506 29.0322072 -16 29 C-16.33 29.33 -16.66 29.66 -17 30 C-18.51928038 30.07179964 -20.04167482 30.08392007 -21.5625 30.0625 C-22.38878906 30.05347656 -23.21507813 30.04445312 -24.06640625 30.03515625 C-25.02353516 30.01775391 -25.02353516 30.01775391 -26 30 C-26 28.02 -26 26.04 -26 24 C-23.36 24 -20.72 24 -18 24 C-18 20.7 -18 17.4 -18 14 C-16.35 13.67 -14.7 13.34 -13 13 C-12.67 16.3 -12.34 19.6 -12 23 C-10.02 23 -8.04 23 -6 23 C-5.98541748 22.37432129 -5.97083496 21.74864258 -5.95581055 21.10400391 C-5.88147196 18.27703598 -5.78476766 15.45126792 -5.6875 12.625 C-5.66494141 11.64015625 -5.64238281 10.6553125 -5.61914062 9.640625 C-5.58369141 8.69960937 -5.54824219 7.75859375 -5.51171875 6.7890625 C-5.48553467 5.91975098 -5.45935059 5.05043945 -5.43237305 4.15478516 C-4.80425932 1.02450185 -3.16358038 0 0 0 Z " fill="#312D2E" transform="translate(94,117)"/>
<path d="M0 0 C0.33 0.66 0.66 1.32 1 2 C-0.32101389 4.85021049 -1.77129205 7.58095052 -3.28710938 10.33007812 C-7.53615491 18.3657474 -8.37020337 26.31819289 -8.3125 35.3125 C-8.30686035 36.23603271 -8.3012207 37.15956543 -8.29541016 38.11108398 C-8.03272647 52.9163009 -3.04700407 65.29211238 6 77 C4.515 77.99 4.515 77.99 3 79 C-8.6131708 60.87423217 -14.45178179 43.6404692 -10.6015625 21.73291016 C-8.59021016 13.83255026 -4.50953326 6.72555819 0 0 Z " fill="#335776" transform="translate(56,79)"/>
<path d="M0 0 C0 1.32 0 2.64 0 4 C-2.60197202 5.00605593 -5.20629362 6.00502525 -7.8125 7 C-8.91948242 7.42925781 -8.91948242 7.42925781 -10.04882812 7.8671875 C-10.76103516 8.13789062 -11.47324219 8.40859375 -12.20703125 8.6875 C-12.8616333 8.93886719 -13.51623535 9.19023438 -14.19067383 9.44921875 C-16 10 -16 10 -19 10 C-19 8.68 -19 7.36 -19 6 C-16.58660204 4.99141578 -14.16981325 3.99297327 -11.75 3 C-11.06808594 2.71382813 -10.38617188 2.42765625 -9.68359375 2.1328125 C-6.18584265 0.70654506 -3.83099811 0 0 0 Z " fill="#E0C583" transform="translate(101,104)"/>
<path d="M0 0 C4.28379643 0.71260094 8.25093853 2.06921736 12.3125 3.5625 C12.95767578 3.79646484 13.60285156 4.03042969 14.26757812 4.27148438 C15.84621219 4.84447007 17.42327026 5.42179464 19 6 C19 7.32 19 8.64 19 10 C14.99350621 9.1016367 11.1353054 7.74851515 7.25 6.4375 C6.55261719 6.20353516 5.85523437 5.96957031 5.13671875 5.72851562 C3.4240213 5.15370621 1.71194814 4.57703725 0 4 C0 2.68 0 1.36 0 0 Z " fill="#DFC37E" transform="translate(119,105)"/>
<path d="M0 0 C0.33 0.66 0.66 1.32 1 2 C-0.04105758 4.24617867 -1.13486434 6.38986731 -2.3125 8.5625 C-7.71089234 19.00618063 -8.41857722 28.38684508 -9 40 C-9.33 40 -9.66 40 -10 40 C-12.03455934 24.48900305 -8.81598014 13.14823154 0 0 Z " fill="#718AA0" transform="translate(56,79)"/>
<path d="M0 0 C2.00546689 0.29868656 4.00577205 0.63371323 6 1 C6.99 0.67 7.98 0.34 9 0 C9.99 0.66 10.98 1.32 12 2 C12 2.66 12 3.32 12 4 C11.34 4 10.68 4 10 4 C10 4.66 10 5.32 10 6 C9.0925 5.814375 8.185 5.62875 7.25 5.4375 C4.31685676 5.04265379 2.7355343 5.05308428 0 6 C-0.66 4.68 -1.32 3.36 -2 2 C-1.34 1.34 -0.68 0.68 0 0 Z " fill="#3B3838" transform="translate(81,149)"/>
<path d="M0 0 C0.33 0 0.66 0 1 0 C1.33931227 2.66602496 1.67157176 5.33263014 2 8 C2.14308594 9.11568359 2.14308594 9.11568359 2.2890625 10.25390625 C2.89227676 15.20888051 3.09075591 20.00842496 3 25 C0.4117805 21.11767075 -0.13053468 18.27485461 -0.09765625 13.671875 C-0.09282227 12.47304687 -0.09282227 12.47304687 -0.08789062 11.25 C-0.07951172 10.425 -0.07113281 9.6 -0.0625 8.75 C-0.05798828 7.90953125 -0.05347656 7.0690625 -0.04882812 6.203125 C-0.03707961 4.13538599 -0.01914522 2.06768376 0 0 Z " fill="#2A4F70" transform="translate(45,108)"/>
<path d="M0 0 C0.99 0.33 1.98 0.66 3 1 C3.94921875 3.28515625 3.94921875 3.28515625 4.6875 6.0625 C4.93886719 6.98160156 5.19023438 7.90070313 5.44921875 8.84765625 C5.63097656 9.55792969 5.81273437 10.26820313 6 11 C3 10 3 10 1.3125 7.1875 C0 4 0 4 0 0 Z " fill="#5A7790" transform="translate(46,130)"/>
<path d="M0 0 C2.31 0 4.62 0 7 0 C5.515 1.98 5.515 1.98 4 4 C1.525 3.01 1.525 3.01 -1 2 C-0.67 1.34 -0.34 0.68 0 0 Z " fill="#E9E8E9" transform="translate(83,147)"/>
<path d="M0 0 C3.67230705 3.07999946 4.56802365 5.2482602 5 10 C1.55783328 7.3401439 1.00495326 4.09711714 0 0 Z " fill="#2C5172" transform="translate(50,140)"/>
</svg>
