<?xml version="1.0" encoding="UTF-8"?>
<svg xmlns="http://www.w3.org/2000/svg" xmlns:xlink="http://www.w3.org/1999/xlink" width="200px" height="200px" viewBox="0 0 200 200" version="1.1">
<g id="surface1">
<path style=" stroke:none;fill-rule:nonzero;fill:rgb(99.215686%,99.607843%,99.607843%);fill-opacity:1;" d="M 96.066406 21.40625 C 96.386719 21.402344 96.707031 21.398438 97.035156 21.398438 C 98.066406 21.390625 99.09375 21.386719 100.121094 21.386719 C 100.648438 21.386719 100.648438 21.386719 101.1875 21.386719 C 106.222656 21.390625 111.085938 21.527344 116.015625 22.65625 C 116.328125 22.722656 116.640625 22.789062 116.964844 22.859375 C 131.691406 26.042969 144.261719 33.148438 155.296875 43.285156 C 155.511719 43.484375 155.726562 43.679688 155.945312 43.882812 C 169.015625 56.144531 178.078125 75.109375 178.949219 93.046875 C 178.96875 93.921875 178.980469 94.796875 178.984375 95.675781 C 178.988281 95.996094 178.992188 96.316406 178.992188 96.644531 C 179 97.675781 179.003906 98.703125 179.003906 99.730469 C 179.003906 100.082031 179.003906 100.433594 179.003906 100.796875 C 179 105.832031 178.863281 110.695312 177.734375 115.625 C 177.667969 115.9375 177.601562 116.25 177.53125 116.574219 C 173.78125 133.929688 164.222656 150.46875 150 161.328125 C 149.445312 161.78125 149.445312 161.78125 148.878906 162.242188 C 136.679688 172.054688 120.457031 178.503906 104.714844 178.59375 C 104.394531 178.597656 104.074219 178.601562 103.746094 178.601562 C 102.714844 178.609375 101.6875 178.613281 100.660156 178.613281 C 100.308594 178.613281 99.957031 178.613281 99.59375 178.613281 C 94.558594 178.609375 89.695312 178.472656 84.765625 177.34375 C 84.453125 177.277344 84.140625 177.210938 83.816406 177.140625 C 63.761719 172.808594 45.828125 160.785156 34.539062 143.59375 C 27.113281 131.914062 21.875 118.320312 21.796875 104.324219 C 21.792969 104.003906 21.789062 103.683594 21.789062 103.355469 C 21.78125 102.324219 21.777344 101.296875 21.777344 100.269531 C 21.777344 99.917969 21.777344 99.566406 21.777344 99.203125 C 21.78125 94.167969 21.917969 89.304688 23.046875 84.375 C 23.113281 84.0625 23.179688 83.75 23.25 83.425781 C 26.433594 68.699219 33.539062 56.128906 43.675781 45.09375 C 43.875 44.878906 44.070312 44.664062 44.273438 44.445312 C 57.144531 30.726562 77.21875 21.511719 96.066406 21.40625 Z M 96.066406 21.40625 "/>
<path style=" stroke:none;fill-rule:nonzero;fill:rgb(8.627451%,24.705882%,38.82353%);fill-opacity:1;" d="M 122.65625 47.265625 C 138.742188 54.933594 151.101562 66.976562 157.152344 83.96875 C 159.46875 90.742188 160.324219 97.597656 160.304688 104.734375 C 160.300781 105.015625 160.300781 105.292969 160.300781 105.578125 C 160.238281 121.644531 153.546875 135.105469 142.96875 146.875 C 142.617188 147.269531 142.617188 147.269531 142.257812 147.675781 C 132.054688 158.464844 116.648438 164.347656 102.035156 164.933594 C 85.238281 165.347656 70.109375 158.992188 57.875 147.691406 C 48.175781 138.292969 41.039062 123.609375 40.582031 110.039062 C 40.328125 93.777344 44.316406 80.5625 54.296875 67.578125 C 54.683594 67.773438 54.683594 67.773438 55.078125 67.96875 C 54.636719 68.601562 54.636719 68.601562 54.191406 69.246094 C 44.710938 83.050781 40.546875 97.699219 43.359375 114.453125 C 43.429688 114.921875 43.503906 115.394531 43.574219 115.875 C 45.382812 126.339844 50.597656 135.320312 57.8125 142.96875 C 58.070312 143.253906 58.328125 143.535156 58.59375 143.828125 C 66.378906 152.054688 76.980469 157.273438 87.890625 159.765625 C 88.332031 159.871094 88.332031 159.871094 88.785156 159.980469 C 90.117188 160.203125 91.433594 160.234375 92.78125 160.25 C 93.066406 160.253906 93.347656 160.257812 93.640625 160.261719 C 102.761719 160.359375 111.425781 159.875 119.921875 156.25 C 120.203125 156.132812 120.484375 156.011719 120.769531 155.890625 C 133.871094 150.234375 144.429688 139.421875 149.792969 126.164062 C 154.0625 115.179688 155.140625 102.839844 151.953125 91.40625 C 151.882812 91.144531 151.8125 90.886719 151.738281 90.617188 C 149.292969 81.945312 144.648438 74.609375 138.671875 67.96875 C 138.425781 67.691406 138.179688 67.410156 137.925781 67.125 C 133.210938 62.089844 127.207031 58.867188 121.09375 55.859375 C 120.574219 55.597656 120.050781 55.339844 119.53125 55.078125 C 121.726562 48.195312 121.726562 48.195312 122.65625 47.265625 Z M 122.65625 47.265625 "/>
<path style=" stroke:none;fill-rule:nonzero;fill:rgb(14.509805%,12.941177%,13.333334%);fill-opacity:1;" d="M 103.96875 72.132812 C 104.28125 72.277344 104.59375 72.421875 104.917969 72.574219 C 105.949219 73.054688 106.976562 73.539062 108.007812 74.023438 C 109.089844 74.53125 110.171875 75.035156 111.257812 75.539062 C 111.996094 75.886719 112.738281 76.230469 113.480469 76.578125 C 117.199219 78.316406 120.925781 80.027344 124.65625 81.738281 C 128.816406 83.644531 132.96875 85.5625 137.109375 87.5 C 137.109375 91.753906 137.109375 96.007812 137.109375 100.390625 C 132.714844 99.070312 132.714844 99.070312 130.90625 98.359375 C 130.5 98.199219 130.09375 98.039062 129.675781 97.875 C 129.25 97.707031 128.820312 97.535156 128.378906 97.363281 C 127.921875 97.183594 127.464844 97.003906 126.996094 96.816406 C 125.785156 96.339844 124.574219 95.863281 123.363281 95.382812 C 122.167969 94.910156 120.96875 94.4375 119.773438 93.964844 C 119.300781 93.78125 118.832031 93.59375 118.347656 93.40625 C 117.40625 93.03125 116.460938 92.660156 115.515625 92.289062 C 113.179688 91.367188 110.855469 90.433594 108.539062 89.460938 C 108.097656 89.277344 107.652344 89.09375 107.195312 88.902344 C 106.363281 88.554688 105.53125 88.203125 104.699219 87.847656 C 100.914062 86.28125 98.507812 87.132812 94.824219 88.566406 C 94.433594 88.714844 94.046875 88.863281 93.644531 89.015625 C 92.378906 89.5 91.109375 89.988281 89.84375 90.476562 C 88.96875 90.8125 88.09375 91.148438 87.214844 91.484375 C 84.574219 92.496094 81.9375 93.511719 79.296875 94.53125 C 78.503906 94.835938 77.707031 95.144531 76.914062 95.449219 C 76.539062 95.59375 76.164062 95.738281 75.777344 95.886719 C 75.050781 96.167969 74.324219 96.449219 73.601562 96.726562 C 71.941406 97.367188 70.285156 98.007812 68.625 98.648438 C 68.039062 98.875 67.449219 99.105469 66.859375 99.332031 C 66.464844 99.484375 66.464844 99.484375 66.0625 99.640625 C 64.886719 100.097656 63.734375 100.519531 62.5 100.78125 C 62.421875 99.148438 62.367188 97.515625 62.328125 95.882812 C 62.3125 95.328125 62.292969 94.769531 62.265625 94.214844 C 62.226562 93.417969 62.207031 92.617188 62.195312 91.816406 C 62.179688 91.335938 62.160156 90.855469 62.144531 90.359375 C 62.535156 88.933594 62.660156 88.796875 63.832031 88.039062 C 64.425781 87.71875 65.023438 87.410156 65.625 87.109375 C 65.929688 86.949219 66.234375 86.789062 66.550781 86.625 C 67.558594 86.097656 68.578125 85.59375 69.601562 85.089844 C 69.976562 84.902344 70.355469 84.714844 70.742188 84.523438 C 71.941406 83.925781 73.140625 83.332031 74.339844 82.738281 C 79.9375 79.96875 85.5 77.152344 91.015625 74.21875 C 92.429688 73.46875 93.84375 72.730469 95.265625 71.996094 C 95.585938 71.824219 95.910156 71.652344 96.242188 71.476562 C 96.710938 71.234375 96.710938 71.234375 97.1875 70.992188 C 97.460938 70.851562 97.730469 70.710938 98.007812 70.566406 C 100.082031 69.925781 102.121094 71.257812 103.96875 72.132812 Z M 103.96875 72.132812 "/>
<path style=" stroke:none;fill-rule:nonzero;fill:rgb(15.686275%,14.117648%,14.509805%);fill-opacity:1;" d="M 102.734375 94.140625 C 102.738281 94.527344 102.742188 94.917969 102.746094 95.316406 C 102.785156 98.972656 102.824219 102.628906 102.867188 106.28125 C 102.886719 108.164062 102.910156 110.042969 102.929688 111.921875 C 102.949219 113.734375 102.96875 115.546875 102.988281 117.363281 C 102.996094 118.054688 103.003906 118.746094 103.011719 119.4375 C 103.019531 120.40625 103.03125 121.375 103.042969 122.34375 C 103.046875 122.773438 103.046875 122.773438 103.050781 123.214844 C 103.039062 125.128906 103.039062 125.128906 103.515625 126.953125 C 104.734375 127.359375 105.574219 127.386719 106.851562 127.382812 C 107.480469 127.378906 107.480469 127.378906 108.121094 127.378906 C 108.558594 127.375 108.996094 127.371094 109.449219 127.367188 C 109.890625 127.367188 110.332031 127.363281 110.789062 127.363281 C 111.878906 127.359375 112.972656 127.351562 114.0625 127.34375 C 114.046875 126.6875 114.046875 126.6875 114.03125 126.019531 C 113.996094 124.390625 113.992188 122.761719 113.992188 121.128906 C 113.992188 120.425781 113.980469 119.722656 113.960938 119.019531 C 113.847656 114.3125 113.847656 114.3125 114.453125 112.5 C 115.726562 111.179688 116.980469 110.59375 118.75 110.15625 C 119.007812 110.15625 119.265625 110.15625 119.53125 110.15625 C 119.542969 110.648438 119.550781 111.140625 119.5625 111.648438 C 119.597656 113.472656 119.636719 115.296875 119.675781 117.121094 C 119.695312 117.914062 119.710938 118.703125 119.726562 119.492188 C 119.746094 120.628906 119.773438 121.761719 119.796875 122.898438 C 119.804688 123.253906 119.8125 123.605469 119.816406 123.972656 C 119.828125 124.464844 119.828125 124.464844 119.839844 124.96875 C 119.851562 125.402344 119.851562 125.402344 119.859375 125.847656 C 119.878906 126.601562 119.878906 126.601562 120.3125 127.34375 C 122.101562 127.515625 122.101562 127.515625 123.710938 126.898438 C 124.429688 125.871094 124.386719 125.082031 124.417969 123.835938 C 124.4375 123.152344 124.4375 123.152344 124.460938 122.457031 C 124.46875 121.984375 124.476562 121.507812 124.488281 121.019531 C 124.5 120.542969 124.515625 120.0625 124.527344 119.570312 C 124.558594 118.382812 124.585938 117.199219 124.609375 116.015625 C 125.898438 115.371094 127.1875 114.726562 128.515625 114.0625 C 128.527344 114.605469 128.527344 114.605469 128.539062 115.15625 C 128.570312 116.496094 128.601562 117.832031 128.640625 119.171875 C 128.65625 119.75 128.667969 120.332031 128.679688 120.910156 C 128.699219 121.742188 128.722656 122.574219 128.746094 123.410156 C 128.757812 123.910156 128.769531 124.410156 128.78125 124.925781 C 128.8125 126.230469 128.8125 126.230469 129.6875 127.34375 C 131.085938 127.441406 131.085938 127.441406 132.421875 127.34375 C 132.867188 126.003906 132.894531 124.90625 132.9375 123.492188 C 132.949219 123.105469 132.949219 123.105469 132.960938 122.710938 C 132.984375 121.886719 133.007812 121.0625 133.03125 120.238281 C 133.050781 119.679688 133.066406 119.121094 133.082031 118.5625 C 133.125 117.191406 133.164062 115.824219 133.203125 114.453125 C 134.492188 113.808594 135.78125 113.164062 137.109375 112.5 C 137.148438 114.488281 137.175781 116.472656 137.195312 118.460938 C 137.203125 119.136719 137.214844 119.808594 137.226562 120.484375 C 137.390625 128.84375 137.390625 128.84375 134.953125 131.507812 C 133.210938 133.03125 132.023438 133.3125 129.792969 133.292969 C 128.605469 133.171875 127.863281 132.792969 126.953125 132.03125 C 126.953125 131.773438 126.953125 131.515625 126.953125 131.25 C 126.769531 131.390625 126.582031 131.53125 126.394531 131.675781 C 124.625 132.917969 123.289062 133.492188 121.113281 133.375 C 119.914062 133.117188 119.199219 132.507812 118.359375 131.640625 C 118.140625 131.753906 117.925781 131.867188 117.699219 131.984375 C 114.945312 133.324219 112.636719 133.347656 109.59375 133.351562 C 109.121094 133.359375 108.644531 133.367188 108.15625 133.378906 C 104.972656 133.390625 103.535156 133.117188 101.21875 130.957031 C 101.074219 130.796875 100.929688 130.632812 100.78125 130.46875 C 100.691406 130.710938 100.605469 130.953125 100.511719 131.203125 C 99.820312 132.324219 99.304688 132.433594 98.046875 132.8125 C 97 132.875 95.996094 132.902344 94.949219 132.890625 C 94.660156 132.886719 94.367188 132.886719 94.066406 132.886719 C 93.136719 132.882812 92.210938 132.871094 91.285156 132.859375 C 90.652344 132.855469 90.023438 132.855469 89.390625 132.851562 C 87.847656 132.84375 86.308594 132.828125 84.765625 132.8125 C 84.96875 132.410156 84.96875 132.410156 85.179688 132 C 85.355469 131.648438 85.535156 131.296875 85.71875 130.933594 C 85.894531 130.582031 86.070312 130.234375 86.253906 129.875 C 86.75 128.890625 86.75 128.890625 87.109375 127.734375 C 87.488281 127.722656 87.488281 127.722656 87.875 127.710938 C 89.019531 127.671875 90.164062 127.628906 91.308594 127.585938 C 91.707031 127.574219 92.101562 127.5625 92.511719 127.550781 C 92.894531 127.535156 93.277344 127.519531 93.671875 127.503906 C 94.023438 127.492188 94.375 127.480469 94.738281 127.46875 C 95.75 127.335938 96.402344 127.109375 97.265625 126.5625 C 97.847656 125.398438 97.726562 124.207031 97.738281 122.929688 C 97.742188 122.636719 97.746094 122.34375 97.75 122.042969 C 97.761719 121.070312 97.769531 120.097656 97.78125 119.125 C 97.789062 118.453125 97.796875 117.777344 97.804688 117.105469 C 97.824219 115.332031 97.84375 113.558594 97.863281 111.785156 C 97.882812 109.976562 97.90625 108.167969 97.925781 106.355469 C 97.96875 102.804688 98.007812 99.253906 98.046875 95.703125 C 98.605469 95.441406 99.167969 95.179688 99.730469 94.921875 C 100.199219 94.703125 100.199219 94.703125 100.679688 94.484375 C 101.5625 94.140625 101.5625 94.140625 102.734375 94.140625 Z M 102.734375 94.140625 "/>
<path style=" stroke:none;fill-rule:nonzero;fill:rgb(8.627451%,24.705882%,38.82353%);fill-opacity:1;" d="M 114.84375 28.515625 C 114.222656 30.21875 113.382812 31.738281 112.476562 33.300781 C 112.261719 33.675781 112.261719 33.675781 112.042969 34.054688 C 110.992188 35.882812 110.992188 35.882812 110.546875 36.328125 C 110.511719 37.066406 110.511719 37.066406 110.472656 37.816406 C 110.382812 38.671875 110.382812 38.671875 110.15625 39.453125 C 108.984375 40.382812 108.984375 40.382812 107.8125 41.015625 C 107.617188 41.402344 107.617188 41.402344 107.421875 41.796875 C 107.761719 41.902344 108.097656 42.007812 108.445312 42.113281 C 109.765625 42.578125 109.765625 42.578125 110.863281 43.238281 C 112.949219 44.097656 114.828125 43.628906 116.917969 42.921875 C 118.050781 42.550781 118.429688 42.636719 119.53125 42.96875 C 119.253906 43.34375 119.253906 43.34375 118.972656 43.726562 C 116.285156 47.464844 115.382812 50.519531 114.84375 55.078125 C 114.585938 55.078125 114.328125 55.078125 114.0625 55.078125 C 113.855469 54.441406 113.855469 54.441406 113.644531 53.792969 C 112.5 50.375 112.5 50.375 110.042969 47.890625 C 107.839844 46.851562 107.839844 46.851562 105.46875 46.484375 C 105.226562 47.828125 105.078125 49.019531 105.078125 50.390625 C 104.691406 50.519531 104.304688 50.648438 103.90625 50.78125 C 103.867188 51.03125 103.828125 51.285156 103.789062 51.542969 C 103.300781 54.503906 102.496094 57.304688 101.5625 60.15625 C 101.304688 60.15625 101.046875 60.15625 100.78125 60.15625 C 99.871094 57.054688 99.386719 54.015625 99.113281 50.804688 C 98.980469 49.339844 98.875 48.511719 98.046875 47.265625 C 97.246094 46.800781 97.246094 46.800781 96.484375 46.484375 C 96.613281 45.96875 96.742188 45.453125 96.875 44.921875 C 97.261719 44.921875 97.648438 44.921875 98.046875 44.921875 C 98.199219 43.996094 98.199219 43.996094 98.046875 42.96875 C 97.277344 42.261719 97.277344 42.261719 96.222656 41.734375 C 95.839844 41.523438 95.460938 41.308594 95.070312 41.085938 C 94.664062 40.871094 94.261719 40.652344 93.847656 40.429688 C 93.058594 39.996094 92.269531 39.5625 91.484375 39.125 C 91.132812 38.933594 90.78125 38.742188 90.417969 38.546875 C 89.332031 37.808594 88.660156 36.996094 87.890625 35.9375 C 88.148438 35.421875 88.40625 34.90625 88.671875 34.375 C 91.648438 34.390625 96.605469 35.277344 98.828125 37.5 C 100.445312 37.597656 100.445312 37.597656 101.953125 37.109375 C 101.757812 35.757812 101.757812 35.757812 101.5625 34.375 C 101.777344 34.429688 101.996094 34.488281 102.21875 34.546875 C 103.605469 34.820312 104.636719 34.988281 105.929688 34.339844 C 106.769531 33.707031 107.550781 33.035156 108.324219 32.324219 C 108.859375 31.859375 109.394531 31.390625 109.933594 30.925781 C 110.164062 30.71875 110.394531 30.507812 110.632812 30.292969 C 112.863281 28.351562 112.863281 28.351562 114.84375 28.515625 Z M 114.84375 28.515625 "/>
<path style=" stroke:none;fill-rule:nonzero;fill:rgb(15.294118%,13.725491%,14.117648%);fill-opacity:1;" d="M 85.15625 106.25 C 85.191406 109.214844 85.21875 112.179688 85.238281 115.144531 C 85.246094 116.519531 85.257812 117.898438 85.273438 119.273438 C 85.292969 120.859375 85.300781 122.441406 85.308594 124.027344 C 85.316406 124.519531 85.324219 125.011719 85.332031 125.515625 C 85.335938 129.761719 85.335938 129.761719 83.59375 131.640625 C 81.648438 133.347656 79.804688 133.285156 77.34375 133.300781 C 77.023438 133.308594 76.703125 133.316406 76.375 133.324219 C 76.066406 133.328125 75.757812 133.328125 75.4375 133.332031 C 75.160156 133.335938 74.878906 133.339844 74.589844 133.34375 C 73.621094 133.164062 73.277344 132.769531 72.65625 132.03125 C 71.0625 132.539062 71.0625 132.539062 69.53125 133.203125 C 68.9375 133.234375 68.339844 133.246094 67.746094 133.242188 C 67.394531 133.238281 67.046875 133.238281 66.683594 133.238281 C 66.136719 133.234375 66.136719 133.234375 65.578125 133.226562 C 65.207031 133.226562 64.839844 133.222656 64.457031 133.222656 C 63.542969 133.21875 62.632812 133.210938 61.71875 133.203125 C 61.71875 131.527344 61.71875 129.851562 61.71875 128.125 C 64.039062 127.996094 66.359375 127.867188 68.75 127.734375 C 68.878906 125.027344 69.007812 122.320312 69.140625 119.53125 C 72.265625 117.96875 72.265625 117.96875 73.828125 117.578125 C 73.839844 117.859375 73.847656 118.140625 73.859375 118.433594 C 73.902344 119.703125 73.949219 120.972656 74 122.242188 C 74.015625 122.683594 74.03125 123.128906 74.046875 123.585938 C 74.0625 124.007812 74.078125 124.429688 74.09375 124.863281 C 74.109375 125.253906 74.125 125.644531 74.136719 126.046875 C 74.121094 126.9375 74.121094 126.9375 74.609375 127.34375 C 75.445312 127.394531 76.285156 127.414062 77.125 127.417969 C 77.582031 127.421875 78.042969 127.429688 78.515625 127.433594 C 79.730469 127.46875 79.730469 127.46875 80.46875 126.5625 C 80.597656 125.742188 80.597656 125.742188 80.59375 124.789062 C 80.601562 124.421875 80.609375 124.054688 80.617188 123.675781 C 80.621094 123.277344 80.625 122.878906 80.628906 122.46875 C 80.636719 122.0625 80.644531 121.65625 80.652344 121.238281 C 80.675781 119.9375 80.695312 118.636719 80.710938 117.335938 C 80.726562 116.453125 80.742188 115.570312 80.757812 114.691406 C 80.796875 112.527344 80.828125 110.367188 80.859375 108.203125 C 81.5 107.875 82.144531 107.550781 82.789062 107.226562 C 83.144531 107.046875 83.503906 106.863281 83.871094 106.675781 C 84.765625 106.25 84.765625 106.25 85.15625 106.25 Z M 85.15625 106.25 "/>
<path style=" stroke:none;fill-rule:nonzero;fill:rgb(86.274511%,74.117649%,44.705883%);fill-opacity:1;" d="M 108.203125 94.921875 C 111.714844 96.039062 115.140625 97.382812 118.578125 98.707031 C 119.203125 98.945312 119.828125 99.183594 120.449219 99.425781 C 121.96875 100.003906 123.484375 100.589844 125 101.171875 C 125 102.203125 125 103.234375 125 104.296875 C 122.835938 104.066406 120.960938 103.515625 118.921875 102.757812 C 118.613281 102.644531 118.304688 102.53125 117.988281 102.417969 C 117.011719 102.0625 116.039062 101.703125 115.0625 101.34375 C 114.398438 101.101562 113.734375 100.855469 113.070312 100.613281 C 111.445312 100.023438 109.824219 99.425781 108.203125 98.828125 C 108.203125 97.539062 108.203125 96.25 108.203125 94.921875 Z M 108.203125 94.921875 "/>
<path style=" stroke:none;fill-rule:nonzero;fill:rgb(86.274511%,74.117649%,44.705883%);fill-opacity:1;" d="M 91.796875 94.140625 C 91.796875 95.300781 91.796875 96.460938 91.796875 97.65625 C 89.53125 98.902344 87.285156 99.683594 84.804688 100.417969 C 83.328125 100.859375 81.90625 101.394531 80.46875 101.953125 C 79.714844 102.242188 78.957031 102.523438 78.199219 102.808594 C 77.839844 102.941406 77.484375 103.078125 77.117188 103.214844 C 76.171875 103.515625 76.171875 103.515625 75 103.515625 C 75 102.484375 75 101.453125 75 100.390625 C 78.441406 98.941406 81.902344 97.539062 85.375 96.167969 C 85.621094 96.070312 85.867188 95.96875 86.121094 95.871094 C 86.839844 95.582031 87.5625 95.296875 88.28125 95.011719 C 88.703125 94.84375 89.128906 94.675781 89.5625 94.503906 C 90.625 94.140625 90.625 94.140625 91.796875 94.140625 Z M 91.796875 94.140625 "/>
<path style=" stroke:none;fill-rule:nonzero;fill:rgb(17.254902%,15.686275%,16.078432%);fill-opacity:1;" d="M 75 134.765625 C 75.902344 135.539062 76.804688 136.3125 77.734375 137.109375 C 79.125 136.414062 79.828125 135.871094 80.859375 134.765625 C 82.527344 135.382812 83.308594 136.527344 84.375 137.890625 C 83.765625 139.386719 82.875 140.375 81.640625 141.40625 C 80.835938 141.453125 80.835938 141.453125 80.078125 141.015625 C 79.199219 140.015625 79.199219 140.015625 78.515625 139.0625 C 77.023438 139.671875 76.097656 140.640625 75 141.796875 C 73.96875 140.765625 72.9375 139.734375 71.875 138.671875 C 72.742188 136.933594 73.613281 136.09375 75 134.765625 Z M 75 134.765625 "/>
<path style=" stroke:none;fill-rule:nonzero;fill:rgb(16.078432%,30.588236%,43.921569%);fill-opacity:1;" d="M 54.296875 67.578125 C 54.554688 67.707031 54.8125 67.835938 55.078125 67.96875 C 54.785156 68.390625 54.492188 68.8125 54.191406 69.246094 C 49.542969 76.011719 45.183594 83.191406 43.75 91.40625 C 43.363281 91.40625 42.976562 91.40625 42.578125 91.40625 C 42.1875 90.625 42.1875 90.625 42.636719 89.144531 C 42.867188 88.511719 43.097656 87.882812 43.335938 87.257812 C 43.460938 86.921875 43.582031 86.589844 43.710938 86.246094 C 46.304688 79.46875 49.929688 73.371094 54.296875 67.578125 Z M 54.296875 67.578125 "/>
<path style=" stroke:none;fill-rule:nonzero;fill:rgb(15.294118%,30.19608%,43.529412%);fill-opacity:1;" d="M 46.09375 81.25 C 46.527344 82.546875 46.460938 82.773438 46.023438 84.003906 C 45.917969 84.308594 45.8125 84.613281 45.703125 84.929688 C 45.589844 85.246094 45.476562 85.5625 45.359375 85.890625 C 44.386719 88.601562 44.386719 88.601562 43.75 91.40625 C 43.363281 91.40625 42.976562 91.40625 42.578125 91.40625 C 42.1875 90.625 42.1875 90.625 42.375 89.886719 C 42.539062 89.445312 42.539062 89.445312 42.707031 88.992188 C 42.824219 88.671875 42.945312 88.347656 43.066406 88.011719 C 43.195312 87.675781 43.324219 87.335938 43.457031 86.988281 C 43.578125 86.652344 43.703125 86.320312 43.828125 85.976562 C 44.453125 84.296875 45.09375 82.746094 46.09375 81.25 Z M 46.09375 81.25 "/>
<path style=" stroke:none;fill-rule:nonzero;fill:rgb(24.705882%,38.039216%,49.411765%);fill-opacity:1;" d="M 54.296875 67.578125 C 54.554688 67.707031 54.8125 67.835938 55.078125 67.96875 C 53.789062 69.902344 52.5 71.835938 51.171875 73.828125 C 50.914062 73.570312 50.65625 73.3125 50.390625 73.046875 C 50.714844 72.601562 50.714844 72.601562 51.046875 72.148438 C 51.328125 71.761719 51.613281 71.371094 51.90625 70.972656 C 52.183594 70.585938 52.464844 70.203125 52.753906 69.804688 C 53.285156 69.070312 53.796875 68.328125 54.296875 67.578125 Z M 54.296875 67.578125 "/>
<path style=" stroke:none;fill-rule:nonzero;fill:rgb(19.215687%,33.333334%,45.882353%);fill-opacity:1;" d="M 43.75 87.5 C 43.878906 87.5 44.007812 87.5 44.140625 87.5 C 44.011719 88.789062 43.882812 90.078125 43.75 91.40625 C 43.363281 91.40625 42.976562 91.40625 42.578125 91.40625 C 42.449219 91.148438 42.320312 90.890625 42.1875 90.625 C 43.167969 88.082031 43.167969 88.082031 43.75 87.5 Z M 43.75 87.5 "/>
<path style=" stroke:none;fill-rule:nonzero;fill:rgb(21.176471%,35.294119%,47.450981%);fill-opacity:1;" d="M 47.265625 78.515625 C 47.523438 78.773438 47.78125 79.03125 48.046875 79.296875 C 47.660156 80.070312 47.273438 80.84375 46.875 81.640625 C 46.617188 81.511719 46.359375 81.382812 46.09375 81.25 C 46.828125 78.953125 46.828125 78.953125 47.265625 78.515625 Z M 47.265625 78.515625 "/>
</g>
</svg>
