<?xml version="1.0" encoding="UTF-8"?>
<svg xmlns="http://www.w3.org/2000/svg" xmlns:xlink="http://www.w3.org/1999/xlink" width="120px" height="120px" viewBox="0 0 120 120" version="1.1">
<g id="surface1">
<path style=" stroke:none;fill-rule:nonzero;fill:rgb(99.215686%,99.607843%,99.607843%);fill-opacity:1;" d="M 57.640625 12.84375 C 57.832031 12.839844 58.023438 12.839844 58.222656 12.839844 C 58.839844 12.832031 59.457031 12.832031 60.074219 12.832031 C 60.390625 12.832031 60.390625 12.832031 60.710938 12.832031 C 63.734375 12.835938 66.652344 12.914062 69.609375 13.59375 C 69.796875 13.632812 69.984375 13.675781 70.179688 13.714844 C 79.015625 15.625 86.554688 19.890625 93.179688 25.972656 C 93.308594 26.089844 93.433594 26.207031 93.566406 26.328125 C 101.410156 33.6875 106.847656 45.066406 107.367188 55.828125 C 107.382812 56.355469 107.386719 56.878906 107.390625 57.40625 C 107.394531 57.597656 107.394531 57.789062 107.394531 57.988281 C 107.402344 58.605469 107.402344 59.222656 107.402344 59.839844 C 107.402344 60.050781 107.402344 60.261719 107.402344 60.476562 C 107.398438 63.5 107.320312 66.417969 106.640625 69.375 C 106.601562 69.5625 106.558594 69.75 106.519531 69.945312 C 104.269531 80.359375 98.53125 90.28125 90 96.796875 C 89.667969 97.070312 89.667969 97.070312 89.328125 97.347656 C 82.007812 103.230469 72.273438 107.101562 62.828125 107.15625 C 62.636719 107.160156 62.445312 107.160156 62.246094 107.160156 C 61.628906 107.167969 61.011719 107.167969 60.394531 107.167969 C 60.183594 107.167969 59.972656 107.167969 59.757812 107.167969 C 56.734375 107.164062 53.816406 107.085938 50.859375 106.40625 C 50.671875 106.367188 50.484375 106.324219 50.289062 106.285156 C 38.257812 103.683594 27.496094 96.472656 20.722656 86.15625 C 16.265625 79.148438 13.125 70.992188 13.078125 62.59375 C 13.074219 62.402344 13.074219 62.210938 13.074219 62.011719 C 13.066406 61.394531 13.066406 60.777344 13.066406 60.160156 C 13.066406 59.949219 13.066406 59.738281 13.066406 59.523438 C 13.070312 56.5 13.148438 53.582031 13.828125 50.625 C 13.867188 50.4375 13.910156 50.25 13.949219 50.054688 C 15.859375 41.21875 20.125 33.679688 26.207031 27.054688 C 26.324219 26.925781 26.441406 26.800781 26.5625 26.667969 C 34.285156 18.4375 46.332031 12.90625 57.640625 12.84375 Z M 57.640625 12.84375 "/>
<path style=" stroke:none;fill-rule:nonzero;fill:rgb(8.627451%,24.705882%,38.82353%);fill-opacity:1;" d="M 73.59375 28.359375 C 83.246094 32.960938 90.660156 40.1875 94.292969 50.378906 C 95.679688 54.445312 96.195312 58.558594 96.179688 62.84375 C 96.179688 63.007812 96.179688 63.175781 96.179688 63.347656 C 96.140625 72.984375 92.128906 81.0625 85.78125 88.125 C 85.570312 88.363281 85.570312 88.363281 85.355469 88.605469 C 79.234375 95.078125 69.988281 98.609375 61.21875 98.960938 C 51.144531 99.210938 42.066406 95.394531 34.722656 88.613281 C 28.90625 82.976562 24.625 74.164062 24.347656 66.023438 C 24.195312 56.265625 26.589844 48.335938 32.578125 40.546875 C 32.808594 40.664062 32.808594 40.664062 33.046875 40.78125 C 32.78125 41.160156 32.78125 41.160156 32.515625 41.546875 C 26.828125 49.832031 24.328125 58.621094 26.015625 68.671875 C 26.058594 68.953125 26.101562 69.234375 26.144531 69.527344 C 27.230469 75.804688 30.359375 81.191406 34.6875 85.78125 C 34.84375 85.953125 34.996094 86.121094 35.15625 86.296875 C 39.828125 91.234375 46.1875 94.363281 52.734375 95.859375 C 53 95.921875 53 95.921875 53.269531 95.988281 C 54.070312 96.121094 54.859375 96.140625 55.667969 96.148438 C 55.839844 96.152344 56.007812 96.152344 56.183594 96.15625 C 61.65625 96.214844 66.855469 95.925781 71.953125 93.75 C 72.121094 93.679688 72.289062 93.605469 72.460938 93.535156 C 80.320312 90.140625 86.65625 83.652344 89.875 75.699219 C 92.4375 69.105469 93.085938 61.703125 91.171875 54.84375 C 91.128906 54.6875 91.085938 54.53125 91.042969 54.371094 C 89.578125 49.167969 86.789062 44.765625 83.203125 40.78125 C 83.054688 40.613281 82.90625 40.445312 82.753906 40.273438 C 79.925781 37.253906 76.324219 35.320312 72.65625 33.515625 C 72.34375 33.359375 72.03125 33.203125 71.71875 33.046875 C 73.035156 28.917969 73.035156 28.917969 73.59375 28.359375 Z M 73.59375 28.359375 "/>
<path style=" stroke:none;fill-rule:nonzero;fill:rgb(14.509805%,12.941177%,13.333334%);fill-opacity:1;" d="M 62.378906 43.277344 C 62.570312 43.367188 62.757812 43.453125 62.949219 43.542969 C 63.570312 43.832031 64.1875 44.125 64.804688 44.414062 C 65.453125 44.71875 66.105469 45.019531 66.753906 45.324219 C 67.199219 45.53125 67.644531 45.738281 68.089844 45.945312 C 70.320312 46.988281 72.554688 48.015625 74.796875 49.042969 C 77.289062 50.1875 79.78125 51.335938 82.265625 52.5 C 82.265625 55.050781 82.265625 57.605469 82.265625 60.234375 C 79.628906 59.441406 79.628906 59.441406 78.542969 59.015625 C 78.300781 58.917969 78.054688 58.824219 77.804688 58.726562 C 77.550781 58.625 77.292969 58.523438 77.027344 58.417969 C 76.753906 58.308594 76.480469 58.203125 76.195312 58.089844 C 75.46875 57.804688 74.746094 57.515625 74.019531 57.230469 C 73.300781 56.945312 72.582031 56.664062 71.863281 56.378906 C 71.582031 56.269531 71.300781 56.15625 71.007812 56.042969 C 70.441406 55.820312 69.875 55.597656 69.308594 55.375 C 67.910156 54.820312 66.511719 54.257812 65.125 53.675781 C 64.859375 53.566406 64.59375 53.457031 64.316406 53.34375 C 63.816406 53.132812 63.316406 52.921875 62.820312 52.707031 C 60.546875 51.769531 59.105469 52.28125 56.894531 53.140625 C 56.660156 53.226562 56.429688 53.316406 56.1875 53.410156 C 55.425781 53.699219 54.667969 53.992188 53.90625 54.289062 C 53.382812 54.488281 52.855469 54.691406 52.328125 54.890625 C 50.746094 55.496094 49.160156 56.109375 47.578125 56.71875 C 47.101562 56.902344 46.625 57.085938 46.148438 57.269531 C 45.921875 57.355469 45.699219 57.445312 45.464844 57.53125 C 45.03125 57.699219 44.59375 57.867188 44.160156 58.035156 C 43.164062 58.417969 42.171875 58.804688 41.175781 59.1875 C 40.824219 59.324219 40.46875 59.460938 40.117188 59.597656 C 39.878906 59.691406 39.878906 59.691406 39.636719 59.785156 C 38.933594 60.058594 38.242188 60.3125 37.5 60.46875 C 37.453125 59.488281 37.417969 58.507812 37.398438 57.527344 C 37.386719 57.195312 37.375 56.863281 37.359375 56.53125 C 37.335938 56.050781 37.324219 55.570312 37.316406 55.089844 C 37.308594 54.800781 37.296875 54.511719 37.289062 54.214844 C 37.519531 53.359375 37.59375 53.277344 38.300781 52.824219 C 38.65625 52.632812 39.011719 52.445312 39.375 52.265625 C 39.558594 52.167969 39.742188 52.074219 39.929688 51.972656 C 40.535156 51.660156 41.148438 51.355469 41.761719 51.054688 C 41.984375 50.941406 42.210938 50.828125 42.445312 50.714844 C 43.164062 50.355469 43.882812 50 44.605469 49.644531 C 47.960938 47.980469 51.300781 46.289062 54.609375 44.53125 C 55.457031 44.082031 56.304688 43.636719 57.15625 43.199219 C 57.351562 43.09375 57.546875 42.992188 57.746094 42.886719 C 58.027344 42.742188 58.027344 42.742188 58.3125 42.59375 C 58.476562 42.511719 58.636719 42.425781 58.804688 42.339844 C 60.050781 41.957031 61.273438 42.753906 62.378906 43.277344 Z M 62.378906 43.277344 "/>
<path style=" stroke:none;fill-rule:nonzero;fill:rgb(15.686275%,14.117648%,14.509805%);fill-opacity:1;" d="M 61.640625 56.484375 C 61.644531 56.71875 61.644531 56.949219 61.648438 57.191406 C 61.671875 59.382812 61.695312 61.578125 61.71875 63.769531 C 61.734375 64.898438 61.746094 66.023438 61.757812 67.152344 C 61.769531 68.242188 61.78125 69.328125 61.792969 70.417969 C 61.796875 70.832031 61.804688 71.246094 61.808594 71.664062 C 61.8125 72.246094 61.820312 72.824219 61.828125 73.40625 C 61.828125 73.664062 61.828125 73.664062 61.832031 73.929688 C 61.824219 75.078125 61.824219 75.078125 62.109375 76.171875 C 62.839844 76.414062 63.34375 76.433594 64.113281 76.429688 C 64.488281 76.429688 64.488281 76.429688 64.875 76.425781 C 65.136719 76.425781 65.398438 76.421875 65.667969 76.421875 C 65.933594 76.417969 66.199219 76.417969 66.472656 76.417969 C 67.128906 76.414062 67.78125 76.410156 68.4375 76.40625 C 68.429688 76.011719 68.429688 76.011719 68.417969 75.609375 C 68.398438 74.632812 68.394531 73.65625 68.394531 72.679688 C 68.394531 72.257812 68.386719 71.832031 68.378906 71.410156 C 68.308594 68.585938 68.308594 68.585938 68.671875 67.5 C 69.4375 66.707031 70.1875 66.355469 71.25 66.09375 C 71.40625 66.09375 71.558594 66.09375 71.71875 66.09375 C 71.726562 66.390625 71.730469 66.683594 71.738281 66.988281 C 71.757812 68.085938 71.78125 69.179688 71.804688 70.273438 C 71.816406 70.746094 71.824219 71.222656 71.835938 71.695312 C 71.847656 72.378906 71.863281 73.058594 71.878906 73.738281 C 71.882812 73.953125 71.886719 74.164062 71.890625 74.382812 C 71.898438 74.679688 71.898438 74.679688 71.90625 74.980469 C 71.910156 75.242188 71.910156 75.242188 71.917969 75.507812 C 71.929688 75.960938 71.929688 75.960938 72.1875 76.40625 C 73.261719 76.511719 73.261719 76.511719 74.226562 76.140625 C 74.65625 75.523438 74.632812 75.050781 74.652344 74.300781 C 74.664062 73.890625 74.664062 73.890625 74.675781 73.476562 C 74.683594 73.191406 74.6875 72.90625 74.691406 72.613281 C 74.699219 72.324219 74.707031 72.039062 74.714844 71.742188 C 74.734375 71.03125 74.75 70.320312 74.765625 69.609375 C 75.539062 69.222656 76.3125 68.835938 77.109375 68.4375 C 77.117188 68.761719 77.117188 68.761719 77.125 69.09375 C 77.140625 69.898438 77.160156 70.699219 77.183594 71.503906 C 77.191406 71.851562 77.199219 72.199219 77.207031 72.546875 C 77.21875 73.046875 77.234375 73.546875 77.246094 74.046875 C 77.253906 74.347656 77.261719 74.648438 77.269531 74.957031 C 77.289062 75.738281 77.289062 75.738281 77.8125 76.40625 C 78.652344 76.464844 78.652344 76.464844 79.453125 76.40625 C 79.722656 75.601562 79.738281 74.945312 79.761719 74.097656 C 79.769531 73.863281 79.769531 73.863281 79.777344 73.625 C 79.792969 73.132812 79.804688 72.636719 79.820312 72.144531 C 79.828125 71.808594 79.839844 71.472656 79.851562 71.136719 C 79.875 70.316406 79.898438 69.492188 79.921875 68.671875 C 80.695312 68.285156 81.46875 67.898438 82.265625 67.5 C 82.289062 68.691406 82.304688 69.882812 82.316406 71.078125 C 82.320312 71.480469 82.328125 71.886719 82.335938 72.289062 C 82.433594 77.304688 82.433594 77.304688 80.972656 78.90625 C 79.925781 79.816406 79.214844 79.988281 77.875 79.976562 C 77.164062 79.902344 76.71875 79.675781 76.171875 79.21875 C 76.171875 79.0625 76.171875 78.910156 76.171875 78.75 C 76.0625 78.835938 75.949219 78.917969 75.835938 79.007812 C 74.777344 79.75 73.972656 80.09375 72.667969 80.023438 C 71.949219 79.871094 71.519531 79.503906 71.015625 78.984375 C 70.886719 79.050781 70.753906 79.121094 70.621094 79.1875 C 68.964844 79.992188 67.582031 80.007812 65.757812 80.007812 C 65.472656 80.015625 65.1875 80.019531 64.894531 80.027344 C 62.984375 80.035156 62.121094 79.871094 60.734375 78.574219 C 60.644531 78.476562 60.558594 78.382812 60.46875 78.28125 C 60.414062 78.425781 60.363281 78.570312 60.308594 78.71875 C 59.890625 79.394531 59.582031 79.460938 58.828125 79.6875 C 58.199219 79.726562 57.597656 79.742188 56.96875 79.734375 C 56.796875 79.734375 56.621094 79.730469 56.441406 79.730469 C 55.882812 79.730469 55.328125 79.722656 54.769531 79.71875 C 54.390625 79.714844 54.011719 79.710938 53.636719 79.710938 C 52.710938 79.707031 51.785156 79.695312 50.859375 79.6875 C 50.980469 79.445312 50.980469 79.445312 51.109375 79.199219 C 51.214844 78.988281 51.320312 78.777344 51.429688 78.558594 C 51.535156 78.351562 51.644531 78.140625 51.753906 77.925781 C 52.050781 77.335938 52.050781 77.335938 52.265625 76.640625 C 52.492188 76.632812 52.492188 76.632812 52.722656 76.625 C 53.410156 76.605469 54.097656 76.578125 54.785156 76.554688 C 55.023438 76.546875 55.261719 76.539062 55.507812 76.53125 C 55.734375 76.523438 55.964844 76.511719 56.203125 76.503906 C 56.414062 76.496094 56.625 76.488281 56.84375 76.480469 C 57.449219 76.402344 57.84375 76.265625 58.359375 75.9375 C 58.707031 75.238281 58.636719 74.523438 58.640625 73.757812 C 58.644531 73.582031 58.648438 73.40625 58.648438 73.226562 C 58.65625 72.640625 58.664062 72.058594 58.667969 71.476562 C 58.671875 71.070312 58.675781 70.667969 58.683594 70.261719 C 58.695312 69.199219 58.707031 68.136719 58.71875 67.070312 C 58.730469 65.984375 58.742188 64.898438 58.757812 63.8125 C 58.78125 61.683594 58.804688 59.550781 58.828125 57.421875 C 59.164062 57.265625 59.5 57.109375 59.839844 56.953125 C 60.121094 56.824219 60.121094 56.824219 60.40625 56.6875 C 60.9375 56.484375 60.9375 56.484375 61.640625 56.484375 Z M 61.640625 56.484375 "/>
<path style=" stroke:none;fill-rule:nonzero;fill:rgb(8.627451%,24.705882%,38.82353%);fill-opacity:1;" d="M 68.90625 17.109375 C 68.535156 18.132812 68.027344 19.042969 67.484375 19.980469 C 67.355469 20.203125 67.355469 20.203125 67.226562 20.433594 C 66.59375 21.53125 66.59375 21.53125 66.328125 21.796875 C 66.304688 22.238281 66.304688 22.238281 66.285156 22.691406 C 66.230469 23.203125 66.230469 23.203125 66.09375 23.671875 C 65.390625 24.226562 65.390625 24.226562 64.6875 24.609375 C 64.570312 24.839844 64.570312 24.839844 64.453125 25.078125 C 64.65625 25.140625 64.859375 25.203125 65.070312 25.269531 C 65.859375 25.546875 65.859375 25.546875 66.519531 25.941406 C 67.769531 26.457031 68.898438 26.175781 70.152344 25.75 C 70.832031 25.53125 71.058594 25.582031 71.71875 25.78125 C 71.554688 26.007812 71.554688 26.007812 71.382812 26.234375 C 69.769531 28.476562 69.230469 30.3125 68.90625 33.046875 C 68.75 33.046875 68.597656 33.046875 68.4375 33.046875 C 68.3125 32.664062 68.3125 32.664062 68.1875 32.277344 C 67.5 30.226562 67.5 30.226562 66.027344 28.734375 C 64.703125 28.113281 64.703125 28.113281 63.28125 27.890625 C 63.136719 28.695312 63.046875 29.410156 63.046875 30.234375 C 62.816406 30.3125 62.582031 30.390625 62.34375 30.46875 C 62.320312 30.621094 62.296875 30.769531 62.273438 30.925781 C 61.980469 32.703125 61.496094 34.382812 60.9375 36.09375 C 60.78125 36.09375 60.628906 36.09375 60.46875 36.09375 C 59.921875 34.234375 59.632812 32.410156 59.46875 30.480469 C 59.386719 29.605469 59.324219 29.105469 58.828125 28.359375 C 58.347656 28.078125 58.347656 28.078125 57.890625 27.890625 C 57.96875 27.582031 58.046875 27.273438 58.125 26.953125 C 58.355469 26.953125 58.589844 26.953125 58.828125 26.953125 C 58.917969 26.398438 58.917969 26.398438 58.828125 25.78125 C 58.367188 25.355469 58.367188 25.355469 57.734375 25.042969 C 57.503906 24.914062 57.277344 24.785156 57.039062 24.652344 C 56.800781 24.523438 56.558594 24.390625 56.308594 24.257812 C 55.835938 24 55.363281 23.738281 54.890625 23.472656 C 54.679688 23.359375 54.46875 23.246094 54.25 23.128906 C 53.601562 22.683594 53.195312 22.195312 52.734375 21.5625 C 52.890625 21.253906 53.042969 20.945312 53.203125 20.625 C 54.988281 20.632812 57.964844 21.167969 59.296875 22.5 C 60.269531 22.558594 60.269531 22.558594 61.171875 22.265625 C 61.054688 21.453125 61.054688 21.453125 60.9375 20.625 C 61.066406 20.660156 61.195312 20.691406 61.332031 20.726562 C 62.164062 20.890625 62.78125 20.992188 63.558594 20.605469 C 64.0625 20.222656 64.53125 19.820312 64.996094 19.394531 C 65.316406 19.113281 65.636719 18.835938 65.960938 18.554688 C 66.097656 18.429688 66.238281 18.304688 66.378906 18.175781 C 67.71875 17.011719 67.71875 17.011719 68.90625 17.109375 Z M 68.90625 17.109375 "/>
<path style=" stroke:none;fill-rule:nonzero;fill:rgb(15.294118%,13.725491%,14.117648%);fill-opacity:1;" d="M 51.09375 63.75 C 51.117188 65.527344 51.132812 67.308594 51.140625 69.085938 C 51.148438 69.910156 51.152344 70.738281 51.164062 71.5625 C 51.175781 72.515625 51.179688 73.464844 51.183594 74.414062 C 51.191406 74.710938 51.195312 75.007812 51.199219 75.308594 C 51.199219 77.859375 51.199219 77.859375 50.15625 78.984375 C 48.988281 80.007812 47.882812 79.972656 46.40625 79.980469 C 46.214844 79.984375 46.023438 79.988281 45.824219 79.996094 C 45.640625 79.996094 45.453125 79.996094 45.265625 80 C 45.09375 80 44.925781 80.003906 44.753906 80.003906 C 44.171875 79.898438 43.964844 79.660156 43.59375 79.21875 C 42.636719 79.523438 42.636719 79.523438 41.71875 79.921875 C 41.363281 79.941406 41.003906 79.945312 40.648438 79.945312 C 40.4375 79.945312 40.226562 79.941406 40.011719 79.941406 C 39.683594 79.941406 39.683594 79.941406 39.34375 79.9375 C 39.125 79.933594 38.902344 79.933594 38.675781 79.933594 C 38.125 79.929688 37.578125 79.925781 37.03125 79.921875 C 37.03125 78.917969 37.03125 77.910156 37.03125 76.875 C 38.421875 76.796875 39.816406 76.71875 41.25 76.640625 C 41.328125 75.015625 41.40625 73.390625 41.484375 71.71875 C 43.359375 70.78125 43.359375 70.78125 44.296875 70.546875 C 44.304688 70.714844 44.308594 70.886719 44.316406 71.058594 C 44.339844 71.820312 44.371094 72.582031 44.398438 73.34375 C 44.410156 73.609375 44.417969 73.878906 44.425781 74.152344 C 44.4375 74.40625 44.445312 74.65625 44.457031 74.917969 C 44.464844 75.152344 44.472656 75.386719 44.484375 75.628906 C 44.472656 76.164062 44.472656 76.164062 44.765625 76.40625 C 45.269531 76.4375 45.769531 76.449219 46.273438 76.449219 C 46.550781 76.453125 46.824219 76.457031 47.109375 76.460938 C 47.839844 76.480469 47.839844 76.480469 48.28125 75.9375 C 48.359375 75.445312 48.359375 75.445312 48.355469 74.875 C 48.359375 74.652344 48.367188 74.433594 48.371094 74.203125 C 48.371094 73.964844 48.375 73.726562 48.378906 73.480469 C 48.382812 73.238281 48.386719 72.996094 48.390625 72.742188 C 48.40625 71.960938 48.417969 71.179688 48.429688 70.398438 C 48.4375 69.871094 48.445312 69.34375 48.457031 68.816406 C 48.476562 67.515625 48.496094 66.21875 48.515625 64.921875 C 48.902344 64.726562 49.285156 64.53125 49.671875 64.335938 C 49.886719 64.226562 50.101562 64.117188 50.324219 64.007812 C 50.859375 63.75 50.859375 63.75 51.09375 63.75 Z M 51.09375 63.75 "/>
<path style=" stroke:none;fill-rule:nonzero;fill:rgb(86.274511%,74.117649%,44.705883%);fill-opacity:1;" d="M 64.921875 56.953125 C 67.03125 57.625 69.085938 58.429688 71.148438 59.222656 C 71.523438 59.367188 71.894531 59.511719 72.269531 59.65625 C 73.179688 60.003906 74.089844 60.351562 75 60.703125 C 75 61.320312 75 61.941406 75 62.578125 C 73.699219 62.441406 72.574219 62.109375 71.351562 61.65625 C 71.167969 61.585938 70.984375 61.519531 70.792969 61.449219 C 70.207031 61.238281 69.621094 61.019531 69.039062 60.804688 C 68.640625 60.660156 68.238281 60.515625 67.839844 60.367188 C 66.867188 60.011719 65.894531 59.65625 64.921875 59.296875 C 64.921875 58.523438 64.921875 57.75 64.921875 56.953125 Z M 64.921875 56.953125 "/>
<path style=" stroke:none;fill-rule:nonzero;fill:rgb(86.274511%,74.117649%,44.705883%);fill-opacity:1;" d="M 55.078125 56.484375 C 55.078125 57.179688 55.078125 57.875 55.078125 58.59375 C 53.71875 59.339844 52.371094 59.8125 50.882812 60.25 C 49.996094 60.515625 49.144531 60.835938 48.28125 61.171875 C 47.828125 61.34375 47.375 61.515625 46.917969 61.683594 C 46.703125 61.765625 46.492188 61.847656 46.269531 61.929688 C 45.703125 62.109375 45.703125 62.109375 45 62.109375 C 45 61.492188 45 60.871094 45 60.234375 C 47.066406 59.363281 49.140625 58.523438 51.226562 57.699219 C 51.375 57.640625 51.519531 57.582031 51.671875 57.523438 C 52.105469 57.347656 52.535156 57.179688 52.96875 57.007812 C 53.222656 56.90625 53.476562 56.804688 53.738281 56.703125 C 54.375 56.484375 54.375 56.484375 55.078125 56.484375 Z M 55.078125 56.484375 "/>
<path style=" stroke:none;fill-rule:nonzero;fill:rgb(17.254902%,15.686275%,16.078432%);fill-opacity:1;" d="M 45 80.859375 C 45.542969 81.324219 46.082031 81.789062 46.640625 82.265625 C 47.476562 81.847656 47.894531 81.523438 48.515625 80.859375 C 49.515625 81.230469 49.984375 81.914062 50.625 82.734375 C 50.257812 83.632812 49.726562 84.226562 48.984375 84.84375 C 48.5 84.875 48.5 84.875 48.046875 84.609375 C 47.519531 84.007812 47.519531 84.007812 47.109375 83.4375 C 46.214844 83.800781 45.65625 84.382812 45 85.078125 C 44.382812 84.460938 43.761719 83.839844 43.125 83.203125 C 43.644531 82.160156 44.167969 81.65625 45 80.859375 Z M 45 80.859375 "/>
<path style=" stroke:none;fill-rule:nonzero;fill:rgb(16.078432%,30.588236%,43.921569%);fill-opacity:1;" d="M 32.578125 40.546875 C 32.734375 40.625 32.886719 40.703125 33.046875 40.78125 C 32.871094 41.035156 32.695312 41.285156 32.515625 41.546875 C 29.726562 45.609375 27.109375 49.914062 26.25 54.84375 C 26.019531 54.84375 25.785156 54.84375 25.546875 54.84375 C 25.3125 54.375 25.3125 54.375 25.582031 53.488281 C 25.71875 53.109375 25.859375 52.730469 26 52.351562 C 26.074219 52.152344 26.148438 51.953125 26.226562 51.75 C 27.785156 47.679688 29.957031 44.023438 32.578125 40.546875 Z M 32.578125 40.546875 "/>
<path style=" stroke:none;fill-rule:nonzero;fill:rgb(15.294118%,30.19608%,43.529412%);fill-opacity:1;" d="M 27.65625 48.75 C 27.914062 49.527344 27.875 49.664062 27.613281 50.402344 C 27.550781 50.585938 27.488281 50.769531 27.421875 50.957031 C 27.355469 51.148438 27.285156 51.335938 27.21875 51.53125 C 26.632812 53.160156 26.632812 53.160156 26.25 54.84375 C 26.019531 54.84375 25.785156 54.84375 25.546875 54.84375 C 25.3125 54.375 25.3125 54.375 25.425781 53.929688 C 25.523438 53.667969 25.523438 53.667969 25.625 53.394531 C 25.695312 53.203125 25.765625 53.007812 25.839844 52.808594 C 25.917969 52.605469 25.996094 52.402344 26.074219 52.191406 C 26.148438 51.992188 26.222656 51.792969 26.296875 51.585938 C 26.671875 50.578125 27.054688 49.648438 27.65625 48.75 Z M 27.65625 48.75 "/>
<path style=" stroke:none;fill-rule:nonzero;fill:rgb(24.705882%,38.039216%,49.411765%);fill-opacity:1;" d="M 32.578125 40.546875 C 32.734375 40.625 32.886719 40.703125 33.046875 40.78125 C 32.273438 41.941406 31.5 43.101562 30.703125 44.296875 C 30.546875 44.140625 30.394531 43.988281 30.234375 43.828125 C 30.429688 43.5625 30.429688 43.5625 30.628906 43.289062 C 30.796875 43.054688 30.96875 42.824219 31.140625 42.582031 C 31.3125 42.351562 31.480469 42.121094 31.652344 41.882812 C 31.96875 41.441406 32.277344 40.996094 32.578125 40.546875 Z M 32.578125 40.546875 "/>
<path style=" stroke:none;fill-rule:nonzero;fill:rgb(19.215687%,33.333334%,45.882353%);fill-opacity:1;" d="M 26.25 52.5 C 26.328125 52.5 26.40625 52.5 26.484375 52.5 C 26.40625 53.273438 26.328125 54.046875 26.25 54.84375 C 26.019531 54.84375 25.785156 54.84375 25.546875 54.84375 C 25.46875 54.6875 25.390625 54.535156 25.3125 54.375 C 25.902344 52.847656 25.902344 52.847656 26.25 52.5 Z M 26.25 52.5 "/>
<path style=" stroke:none;fill-rule:nonzero;fill:rgb(21.176471%,35.294119%,47.450981%);fill-opacity:1;" d="M 28.359375 47.109375 C 28.515625 47.265625 28.667969 47.417969 28.828125 47.578125 C 28.597656 48.042969 28.363281 48.507812 28.125 48.984375 C 27.96875 48.90625 27.816406 48.828125 27.65625 48.75 C 28.09375 47.375 28.09375 47.375 28.359375 47.109375 Z M 28.359375 47.109375 "/>
</g>
</svg>
