<svg xmlns="http://www.w3.org/2000/svg" viewBox="0 0 100 100" fill="currentColor">
  <path d="M50,3.5A46.5,46.5,0,1,0,96.5,50,46.55,46.55,0,0,0,50,3.5Zm0,90A43.5,43.5,0,1,1,93.5,50,43.55,43.55,0,0,1,50,93.5Z"/>
  <path d="M50,15.5a3,3,0,0,0-3,3V31.8h-11a3,3,0,0,0,0,6h11V51.1h-11a3,3,0,0,0,0,6h11V70.4a3,3,0,1,0,6,0V57.1h11a3,3,0,0,0,0-6h-11V37.8h11a3,3,0,0,0,0-6h-11V18.5A3,3,0,0,0,50,15.5Z"/>
  <path d="M36,25.8a3,3,0,1,0-6,0v48.4a3,3,0,1,0,6,0Zm34,0a3,3,0,1,0-6,0v48.4a3,3,0,0,0,6,0Z"/>
  <rect x="25" y="47.5" width="50" height="6" rx="3"/>
  <path d="M50,56.5a20,20,0,1,0,20,20A20,20,0,0,0,50,56.5Zm0,37a17,17,0,1,1,17-17A17,17,0,0,1,50,93.5Z"/>
  <path d="M50,62.5a3,3,0,0,0-3,3v15a3,3,0,0,0,6,0v-15A3,3,0,0,0,50,62.5Z"/>
</svg>
