<svg width="100" height="100" viewBox="0 0 100 100" fill="none" xmlns="http://www.w3.org/2000/svg">
<path d="M50 100C77.6142 100 100 77.6142 100 50C100 22.3858 77.6142 0 50 0C22.3858 0 0 22.3858 0 50C0 77.6142 22.3858 100 50 100Z" fill="#006C35"/>
<path d="M50.0002 12.5C39.0202 12.5 30.0102 17.59 25.1302 25.68C26.1302 25.53 27.1502 25.43 28.1802 25.43C31.1102 25.43 33.8702 25.88 36.3802 26.69L34.2502 43.15C31.5702 42.47 28.7202 42.11 25.7502 42.11C25.0402 42.11 24.3302 42.14 23.6302 42.22L25.3302 55.45C24.4702 55.51 23.6302 55.6 22.7802 55.72L24.8902 74.57C32.1402 70.4 37.8902 63.79 40.5402 55.78C42.0602 58.78 44.5702 61.26 47.7402 62.74V77.53C44.7502 78.43 42.0302 79.82 39.6902 81.62L41.3402 87.5C44.0202 85.83 46.8502 84.47 49.8102 83.48V62.74C52.9902 61.26 55.4902 58.78 57.0102 55.78C59.6602 63.79 65.4102 70.4 72.6602 74.57L74.7702 55.72C73.9202 55.6 73.0702 55.51 72.2202 55.45L73.9202 42.22C73.2202 42.14 72.5102 42.11 71.8002 42.11C68.8302 42.11 65.9802 42.47 63.3002 43.15L61.1702 26.69C63.6802 25.88 66.4402 25.43 69.3702 25.43C70.4002 25.43 71.4202 25.53 72.4202 25.68C67.5402 17.59 58.5302 12.5 50.0002 12.5Z" fill="white"/>
<path d="M49.81 83.48L49.81 91.67L52.81 91.67L52.81 83.48C56.63 82.72 60.11 81.25 62.99 79.25L60.83 73.68C58.31 75.43 55.42 76.69 52.22 77.34L52.22 62.74C54.14 61.96 55.85 60.83 57.26 59.43C55.49 53.64 53.03 48.33 50.03 43.6C47.03 48.33 44.57 53.64 42.8 59.43C44.21 60.83 45.92 61.96 47.83 62.74L47.83 77.34C44.64 76.69 41.75 75.43 39.23 73.68L37.07 79.25C39.95 81.25 43.43 82.72 47.24 83.48L49.81 83.48Z" fill="white"/>
</svg>
