<svg width="250" height="71" viewBox="0 0 250 71" fill="none" xmlns="http://www.w3.org/2000/svg">
<path fill-rule="evenodd" clip-rule="evenodd" d="M3.7915 35.8596C3.7915 54.3486 19.0143 69.1419 37.9547 69.1419C56.8951 69.1419 72.1179 54.3486 72.1179 35.8596C72.1179 17.3705 56.8951 2.57721 37.9547 2.57721C19.0143 2.57721 3.7915 17.3705 3.7915 35.8596ZM37.9547 71.1419C58.8242 71.1419 75.9094 55.4851 75.9094 35.8596C75.9094 16.234 58.8242 0.577209 37.9547 0.577209C17.0852 0.577209 0 16.234 0 35.8596C0 55.4851 17.0852 71.1419 37.9547 71.1419Z" fill="black"/>
<path d="M59.3906 3.125V68.5" stroke="black" stroke-width="3"/>
<path d="M48.5 28.5L25.684 41.5" stroke="black" stroke-width="2"/>
<path d="M48.5 44L25.684 31" stroke="black" stroke-width="2"/>
<path fill-rule="evenodd" clip-rule="evenodd" d="M122.955 2.57721H116.486V6.99351C116.486 8.52834 117.585 9.77114 118.91 9.77114C120.235 9.77114 121.334 8.52834 121.334 6.99351V2.57721H90.8703V6.99351C90.8703 8.52834 91.969 9.77114 93.2941 9.77114C94.6191 9.77114 95.7178 8.52834 95.7178 6.99351V2.57721H89.2489C86.7231 2.57721 84.7715 4.59334 84.7715 7.19961V64.0886C84.7715 66.6948 86.7231 68.7109 89.2489 68.7109H122.955C125.481 68.7109 127.432 66.6948 127.432 64.0886V7.19961C127.432 4.59334 125.481 2.57721 122.955 2.57721ZM114.865 53.6496C114.865 54.3486 114.331 54.8978 113.655 54.8978H98.543C97.867 54.8978 97.3328 54.3486 97.3328 53.6496V50.6272C97.3328 49.9282 97.867 49.379 98.543 49.379H113.655C114.331 49.379 114.865 49.9282 114.865 50.6272V53.6496Z" fill="black"/>
<path d="M141.5 2.57721H147.5" stroke="black" stroke-width="2"/>
<path d="M144.5 2.57721V68.711" stroke="black" stroke-width="2"/>
<path d="M141.5 68.711H147.5" stroke="black" stroke-width="2"/>
<path d="M144.5 35.6441H153.5L160 27.8028" stroke="black" stroke-width="2"/>
<path d="M144.5 35.6441L160 44.4854" stroke="black" stroke-width="2"/>
<path d="M153.5 35.6441H160" stroke="black" stroke-width="2"/>
<path d="M174.5 2.57721V68.711" stroke="black" stroke-width="2"/>
<path d="M187.5 2.57721V68.711" stroke="black" stroke-width="2"/>
<path d="M174.5 35.6441H187.5" stroke="black" stroke-width="2"/>
<path d="M208.5 68.711V2.57721" stroke="black" stroke-width="2"/>
<path d="M195.5 2.57721V68.711" stroke="black" stroke-width="2"/>
<path d="M195.5 2.57721H208.5" stroke="black" stroke-width="2"/>
<path d="M195.5 35.6441H208.5" stroke="black" stroke-width="2"/>
<path d="M248.5 68.711V2.57721L236 35.6441L248.5 68.711Z" fill="black"/>
<path d="M248.5 68.711V2.57721L236 35.6441L248.5 68.711Z" stroke="black" stroke-width="2"/>
<path d="M221.5 68.711V2.57721L234 35.6441L221.5 68.711Z" stroke="black" stroke-width="2"/>
<path d="M109.117 19.3364L105.787 15.908L102.457 19.3364L100.99 17.8283L104.32 14.4L100.99 10.9716L102.457 9.46349L105.787 12.8919L109.117 9.46349L110.584 10.9716L107.254 14.4L110.584 17.8283L109.117 19.3364Z" fill="black"/>
<path d="M37.9547 54.8978C37.2787 54.8978 36.7445 54.3486 36.7445 53.6496V17.3705C36.7445 16.6715 37.2787 16.1223 37.9547 16.1223C38.6307 16.1223 39.1649 16.6715 39.1649 17.3705V53.6496C39.1649 54.3486 38.6307 54.8978 37.9547 54.8978Z" fill="black"/>
<path d="M52.0622 46.2162C51.528 46.7654 50.7022 46.9167 49.9463 46.6013L25.9866 36.726C25.2307 36.4105 24.7656 35.6496 24.7656 34.8082V21.1895C24.7656 20.3481 25.2307 19.5872 25.9866 19.2717L49.9463 9.39641C50.7022 9.08092 51.528 9.23223 52.0622 9.78143C52.5964 10.3306 52.6656 11.1613 52.2005 11.7797L52.0622 46.2162Z" stroke="black" stroke-width="2"/>
</svg>
