<svg xmlns="http://www.w3.org/2000/svg" viewBox="0 0 180 40" width="180" height="40" role="img" aria-labelledby="qatar-title">
  <title id="qatar-title">Qatar Airways Logo</title>
  <style>
    .qatar-text { font: 22px 'Optima', sans-serif; fill: #5C0632; letter-spacing: 1.5px; }
    .qatar-symbol { fill: #5C0632; }
  </style>
  <text x="5" y="28" class="qatar-text">QATAR</text>
  <text x="95" y="28" class="qatar-text" font-weight="300">AIRWAYS</text>
  <g transform="translate(82, 22) scale(0.6)">
    <path class="qatar-symbol" d="M22.6,1.1C18.4-1.2,13.7,0.2,11.3,4.3c-0.2,0.4-0.4,0.8-0.7,1.1c-0.5-0.5-1-1-1.5-1.5c-2.2-2.3-5.6-3-8.4-1.7 c-3.9,1.8-5.7,6.4-4,10.4c1.1,2.5,3.3,4.2,5.9,4.9c0.2,0.1,0.5,0.1,0.7,0.1c2.8,0,5.4-1.6,6.7-4.1c0.1-0.2,0.2-0.4,0.2-0.6 c0.3,0.3,0.5,0.5,0.8,0.8c2.4,2.4,5.8,3.2,8.8,2c4.1-1.6,6.3-6.1,4.7-10.2C28.7,4.5,26,1.9,22.6,1.1z M8.1,14.2 c-1.6-0.9-2.5-2.8-2-4.5c0.5-1.9,2.3-3.2,4.2-3c1.7,0.2,3,1.5,3.4,3.2c0.1,0.3,0.1,0.6,0,0.9c-0.1,0.4-0.3,0.8-0.5,1.2 c-0.6,1.1-1.8,1.9-3,2.1C9.6,14.2,8.8,14.2,8.1,14.2z M22.7,11.5c-0.7,1.3-2,2.2-3.4,2.4c-0.6,0.1-1.2,0-1.8-0.2 c-1.5-0.4-2.7-1.5-3.3-2.9c-0.1-0.3-0.2-0.6-0.3-0.9c0.3-0.3,0.6-0.6,0.9-0.9c1.6-1.6,3.8-2.3,6-1.9c2.1,0.4,3.7,2,4.2,4.1 C24.9,13.1,24,14.5,22.7,11.5z"/>
  </g>
</svg>
